<?xml version="1.0" encoding="UTF-8"?>
<svg version="1.1" xmlns="http://www.w3.org/2000/svg" width="500" height="500">
<path d="M0 0 C7.31397841 -0.07608962 14.62785466 -0.12861664 21.94213867 -0.16479492 C24.4301332 -0.17987761 26.91810117 -0.20034654 29.40600586 -0.22631836 C32.98297688 -0.26272337 36.55959622 -0.27973184 40.13671875 -0.29296875 C41.80416389 -0.31619453 41.80416389 -0.31619453 43.5052948 -0.33988953 C44.54599625 -0.34011612 45.58669769 -0.34034271 46.65893555 -0.34057617 C48.02794258 -0.35056892 48.02794258 -0.35056892 49.42460632 -0.36076355 C60.19552558 1.14803687 70.51422935 15.42651589 77.75878906 22.79541016 C81.71090969 26.79640208 85.76033037 30.57779993 90.02246094 34.24511719 C93.44048714 37.27829896 96.61507873 40.55015647 99.8125 43.8125 C101.10830637 45.1338395 102.40639155 46.45294908 103.70703125 47.76953125 C104.2688208 48.34292236 104.83061035 48.91631348 105.40942383 49.50708008 C107.13564277 51.20957915 107.13564277 51.20957915 110 53 C110 53.66 110 54.32 110 55 C110.55397461 55.22727783 111.10794922 55.45455566 111.67871094 55.6887207 C114.67733434 57.38262124 116.72794461 59.52222907 119.140625 61.98046875 C119.62650085 62.47154617 120.11237671 62.9626236 120.61297607 63.46858215 C122.16350303 65.03685648 123.70719156 66.61163482 125.25 68.1875 C127.27256105 70.24694569 129.29846779 72.30301616 131.328125 74.35546875 C131.81671997 74.85001556 132.30531494 75.34456238 132.80871582 75.85409546 C136.22596873 79.28756267 139.75630651 82.52863792 143.46777344 85.63989258 C145.59896709 87.5316835 147.22212112 89.7776514 149 92 C151.5927609 94.42105488 154.29570219 96.70513793 157 99 C157.95712891 99.84691406 157.95712891 99.84691406 158.93359375 100.7109375 C159.53300781 101.23945313 160.13242188 101.76796875 160.75 102.3125 C161.54664063 103.01826172 161.54664063 103.01826172 162.359375 103.73828125 C164.14557085 105.11195092 165.97735401 106.01808501 168 107 C167.98525131 106.40309357 167.97050262 105.80618713 167.95530701 105.19119263 C167.80322549 98.99494887 167.65839177 92.79856617 167.51782227 86.60205078 C167.46435579 84.28755365 167.40902294 81.97309887 167.35180664 79.65869141 C167.2700253 76.33765802 167.19489267 73.01653164 167.12109375 69.6953125 C167.08054115 68.13588425 167.08054115 68.13588425 167.03916931 66.54495239 C167.01907303 65.58410736 166.99897675 64.62326233 166.97827148 63.63330078 C166.94829323 62.36089035 166.94829323 62.36089035 166.91770935 61.06277466 C167 59 167 59 168 57 C170.07421875 56.55859375 170.07421875 56.55859375 173 57 C175.56860242 59.08144014 177.65776406 61.56394827 179.8125 64.0625 C183.95430574 68.76762826 188.13719785 73.08904877 192.90893555 77.15795898 C197.60566281 81.2953562 201.90297919 85.86719385 206.2890625 90.328125 C209.76640264 93.841314 213.25002899 97.27725264 217 100.5 C222.39677457 105.13802012 227.30354364 110.25752903 232.2890625 115.328125 C235.7458443 118.82054373 239.2060483 122.23804242 242.9375 125.4375 C248.81410182 130.48788651 254.14430553 136.10103744 259.578125 141.6171875 C264.00067621 146.08043703 268.47495017 150.38132973 273.24462891 154.47167969 C275.66966718 156.5830482 277.93117163 158.83554446 280.1875 161.125 C280.98542969 161.93195313 281.78335937 162.73890625 282.60546875 163.5703125 C284.17274603 165.16060038 285.73918571 166.75171428 287.3046875 168.34375 C291.45075739 172.42973192 295.74298758 176.3587533 300.02929688 180.296875 C303.85278646 183.84855253 307.36526273 187.4828345 310.70629883 191.49072266 C312.29312544 193.34197046 314.01033565 194.93144115 315.875 196.5 C316.55046875 197.0775 317.2259375 197.655 317.921875 198.25 C318.60765625 198.8275 319.2934375 199.405 320 200 C323.92945386 203.30901378 327.72124575 206.53004891 331 210.5 C333.58241186 213.61670396 336.39218515 216.17197215 339.46875 218.79296875 C344.85758195 223.49156451 350.03272696 228.42649574 355.22607422 233.33886719 C356.80048577 234.81317165 358.39523832 236.25866816 360.00390625 237.6953125 C360.82761719 238.45585937 361.65132813 239.21640625 362.5 240 C363.2115625 240.639375 363.923125 241.27875 364.65625 241.9375 C366 244 366 244 365.95703125 247.02734375 C364.8798306 250.37326086 363.93563328 251.44659033 361.1875 253.5625 C357.98645637 256.15409226 355.5079954 258.7136612 353 262 C351.3545622 263.68762851 349.68711423 265.3540349 348 267 C347.21625 267.94875 346.4325 268.8975 345.625 269.875 C343 272 343 272 339.5 272.125 C335.42549155 270.81533657 333.67355837 269.30263093 331 266 C330.67 265.01 330.34 264.02 330 263 C328.68587739 262.29622163 327.34955861 261.63317753 326 261 C324.34008789 259.56713867 324.34008789 259.56713867 322.72265625 257.91796875 C322.12646484 257.31533203 321.53027344 256.71269531 320.91601562 256.09179688 C320.30435547 255.46337891 319.69269531 254.83496094 319.0625 254.1875 C318.45470703 253.57068359 317.84691406 252.95386719 317.22070312 252.31835938 C315.4773132 250.54863994 313.73819986 248.77481525 312 247 C308.59742265 243.53841842 305.12597159 240.37898344 301.35546875 237.33203125 C300.90816406 236.89246094 300.46085937 236.45289063 300 236 C300 235.34 300 234.68 300 234 C299.44183594 233.76925781 298.88367188 233.53851563 298.30859375 233.30078125 C295.38710799 231.65466491 293.39945334 229.58926868 291.0625 227.1875 C290.22847656 226.33542969 289.39445312 225.48335937 288.53515625 224.60546875 C287.28025391 223.31576172 287.28025391 223.31576172 286 222 C284.33459548 220.33207214 282.66801129 218.66532095 281 217 C280.35417969 216.34257812 279.70835937 215.68515625 279.04296875 215.0078125 C278.43066406 214.38648438 277.81835938 213.76515625 277.1875 213.125 C276.58292969 212.50882813 275.97835938 211.89265625 275.35546875 211.2578125 C273.41017105 209.39316562 271.43134615 207.64249893 269.38671875 205.890625 C264.20930231 201.39234219 259.4368308 196.50748911 254.625 191.625 C252.8486586 189.82324599 251.07012661 188.02364817 249.2890625 186.2265625 C248.12431396 185.04441162 248.12431396 185.04441162 246.93603516 183.83837891 C245.12774043 181.94237659 245.12774043 181.94237659 243 181 C243 180.34 243 179.68 243 179 C241.68 178.34 240.36 177.68 239 177 C239 176.34 239 175.68 239 175 C238.40993164 174.73662842 237.81986328 174.47325684 237.21191406 174.2019043 C234.90427185 172.94798348 233.43272606 171.64804739 231.609375 169.76953125 C230.66771484 168.81143555 230.66771484 168.81143555 229.70703125 167.83398438 C229.06121094 167.16689453 228.41539062 166.49980469 227.75 165.8125 C223.97350567 161.93174662 220.20453603 158.11906905 216.09375 154.58984375 C211.40113259 150.5503756 207.08964957 146.16197707 202.75 141.75 C201.18468099 140.15910388 199.61705731 138.57047132 198.046875 136.984375 C197.02352051 135.94361816 197.02352051 135.94361816 195.97949219 134.88183594 C194.03379451 132.94726353 194.03379451 132.94726353 191.74707031 131.37597656 C190.88227051 130.69486816 190.88227051 130.69486816 190 130 C190 129.34 190 128.68 190 128 C189.34 128 188.68 128 188 128 C188 144.5 188 161 188 178 C186.02 178.99 186.02 178.99 184 180 C174.4655115 171.7904032 174.4655115 171.7904032 171 168 C171 167.34 171 166.68 171 166 C170.01 165.67 169.02 165.34 168 165 C166.8162238 163.86475651 165.63893163 162.72160298 164.50341797 161.53808594 C162.79489116 159.79016147 161.01871039 158.13439025 159.22265625 156.4765625 C158.54396484 155.8475 157.86527344 155.2184375 157.16601562 154.5703125 C155.7696699 153.27898442 154.37124672 151.98989895 152.97070312 150.703125 C149.14429547 147.14873685 145.62875294 143.5112901 142.28491211 139.50048828 C140.73882023 137.69500078 139.07234352 136.14899524 137.25 134.625 C136.5796875 134.05265625 135.909375 133.4803125 135.21875 132.890625 C134.4865625 132.26671875 133.754375 131.6428125 133 131 C131.24351753 129.46572315 129.4936865 127.92380389 127.75 126.375 C126.94046875 125.66085937 126.1309375 124.94671875 125.296875 124.2109375 C123 122 123 122 120.890625 119.3515625 C119.04189667 116.81062111 119.04189667 116.81062111 116 115 C116 114.34 116 113.68 116 113 C115.41081787 112.73227783 114.82163574 112.46455566 114.21459961 112.1887207 C111.97333165 110.98568535 110.41031708 109.72212944 108.56640625 107.98046875 C107.92380859 107.37654297 107.28121094 106.77261719 106.61914062 106.15039062 C105.94044922 105.50263672 105.26175781 104.85488281 104.5625 104.1875 C103.85673828 103.52041016 103.15097656 102.85332031 102.42382812 102.16601562 C97.32076937 97.32017675 92.33081714 92.37007427 87.38427734 87.36523438 C83.99419187 83.9484889 80.50156927 80.73310236 76.83984375 77.61328125 C72.59127657 73.88789219 68.47345213 69.94875927 65.0625 65.4375 C62.36768877 62.25272309 59.19201495 59.9977399 55.828125 57.55078125 C55.22484375 57.03902344 54.6215625 56.52726562 54 56 C54 55.34 54 54.68 54 54 C53.443125 53.773125 52.88625 53.54625 52.3125 53.3125 C49.33840412 51.62449964 47.27991135 49.53323483 45 47 C45 46.34 45 45.68 45 45 C44.01 44.67 43.02 44.34 42 44 C40.640625 42.546875 40.640625 42.546875 39.25 40.75 C36.66247022 37.60387198 34.0079337 35.43452841 30.6484375 33.16796875 C28.1342792 31.38661014 26.12322724 29.2267993 24 27 C22.66753966 25.68661374 21.33413175 24.37418841 20 23.0625 C17.71743166 20.79263612 15.68368933 18.59819996 13.6875 16.0625 C10.52798014 12.0582474 6.27786115 9.1960117 2.23046875 6.1484375 C1.49441406 5.43945312 0.75835937 4.73046875 0 4 C0 2.68 0 1.36 0 0 Z " fill="#FBFBFB" transform="translate(63,133)"/>
<path d="M0 0 C7.36429564 -0.22932893 14.72766221 -0.3862717 22.09472656 -0.49438477 C24.5973552 -0.53947863 27.09974892 -0.6007734 29.6015625 -0.67895508 C33.21152809 -0.78889233 36.81834595 -0.83933723 40.4296875 -0.87890625 C41.53738495 -0.92535782 42.6450824 -0.97180939 43.78634644 -1.01966858 C50.30260963 -1.02384611 53.67935529 -0.01562917 58.58642578 4.39477539 C60.07075409 5.91715132 61.54370612 7.45078499 63 9 C64.04570736 9.87464453 65.10581318 10.73276477 66.1875 11.5625 C68.43498977 13.51032447 70.16855025 15.30823786 72.0625 17.5625 C75.3389641 21.41069609 78.91175847 24.83260939 82.625 28.25 C83.17551025 28.75732666 83.72602051 29.26465332 84.29321289 29.78735352 C86.70476148 31.9867701 89.12176422 34.09592472 91.6875 36.1171875 C93.8807031 37.90286975 95.5822987 39.69752379 97.375 41.875 C100.23219893 45.24084314 103.24875633 48.04627421 106.71484375 50.7734375 C107.13894531 51.17820313 107.56304687 51.58296875 108 52 C108 52.66 108 53.32 108 54 C108.85803223 54.36798706 108.85803223 54.36798706 109.73339844 54.7434082 C112.38736797 56.21475473 114.14499183 57.93552401 116.265625 60.10546875 C117.47798828 61.33426758 117.47798828 61.33426758 118.71484375 62.58789062 C119.55144531 63.44576172 120.38804687 64.30363281 121.25 65.1875 C126.40310044 70.44981057 131.55874189 75.59362298 137.15136719 80.3894043 C140.0501696 82.9149457 142.78060252 85.59657114 145.5 88.3125 C146.304375 89.09850586 146.304375 89.09850586 147.125 89.90039062 C148.45717501 91.22746802 149.73407049 92.60958742 151 94 C151 94.66 151 95.32 151 96 C151.59063232 96.26917236 152.18126465 96.53834473 152.78979492 96.81567383 C155.00221741 98.00118819 156.54335988 99.23253655 158.36328125 100.94921875 C158.99556641 101.54283203 159.62785156 102.13644531 160.27929688 102.74804688 C160.95025391 103.38806641 161.62121094 104.02808594 162.3125 104.6875 C163.01310547 105.34943359 163.71371094 106.01136719 164.43554688 106.69335938 C170.02574153 112.00279089 175.47808263 117.44282277 180.90209961 122.92114258 C184.527228 126.5705258 188.22361613 130.05058857 192.1484375 133.37890625 C195.94858386 136.70603861 199.66269931 140.20691056 203 144 C203 144.66 203 145.32 203 146 C203.54527344 146.22816406 204.09054687 146.45632813 204.65234375 146.69140625 C207.70363323 148.3922082 210.001766 150.56490156 212.5625 152.9375 C213.98755859 154.25041016 213.98755859 154.25041016 215.44140625 155.58984375 C221.79225749 161.57224866 221.79225749 161.57224866 222 165 C220.6875 167.25 220.6875 167.25 219 169 C218.34 169 217.68 169 217 169 C216.740979 169.58571777 216.48195801 170.17143555 216.21508789 170.77490234 C214.90997874 173.16484906 213.50660672 174.7071834 211.55859375 176.6015625 C210.55989258 177.58382812 210.55989258 177.58382812 209.54101562 178.5859375 C208.84685547 179.25882813 208.15269531 179.93171875 207.4375 180.625 C206.05901463 181.96911869 204.68260599 183.31537153 203.30859375 184.6640625 C202.69814209 185.25654785 202.08769043 185.8490332 201.45874023 186.45947266 C199.90189218 187.95434048 199.90189218 187.95434048 199 190 C195.99605337 190.47935319 193.86572174 190.61869642 191.32128906 188.80029297 C189.51544266 187.07121332 187.8116214 185.28306023 186.125 183.4375 C184.96369473 182.20442867 183.7996148 180.97396477 182.6328125 179.74609375 C182.04016602 179.1207373 181.44751953 178.49538086 180.83691406 177.85107422 C179.02024123 176.02039727 177.13842949 174.33704009 175.1796875 172.66015625 C169.26137761 167.5778344 163.89251372 161.93633969 158.421875 156.3828125 C153.90555436 151.82493063 149.35715206 147.45172975 144.3984375 143.375 C143.93695313 142.92125 143.47546875 142.4675 143 142 C143 141.34 143 140.68 143 140 C142.40759521 139.73356689 141.81519043 139.46713379 141.20483398 139.19262695 C138.95479475 137.97554782 137.50668388 136.73700372 135.72265625 134.91796875 C134.82836914 134.01401367 134.82836914 134.01401367 133.91601562 133.09179688 C132.99852539 132.14916992 132.99852539 132.14916992 132.0625 131.1875 C131.45470703 130.57068359 130.84691406 129.95386719 130.22070312 129.31835938 C128.47731393 127.54864068 126.73849155 125.77452779 125 124 C122.39348342 121.35651156 119.85282741 118.87735618 117 116.5 C114.1522528 114.12687733 111.60413501 111.63513662 109 109 C108.175 108.175 107.35 107.35 106.5 106.5 C99 99 99 99 96.375 96.34375 C93.96396387 93.89885525 93.96396387 93.89885525 91 91.5 C88.14664065 89.12220054 85.5950694 86.65541985 83 84 C81.50137049 82.49863076 80.00124018 80.99875879 78.5 79.5 C69 70 69 70 67.02734375 67.9921875 C66.31707031 67.27289063 65.60679687 66.55359375 64.875 65.8125 C64.21242188 65.13832031 63.54984375 64.46414062 62.8671875 63.76953125 C60.92056683 61.82446642 60.92056683 61.82446642 58 60 C58 59.34 58 58.68 58 58 C57.45053711 57.77723389 56.90107422 57.55446777 56.33496094 57.32495117 C53.29554627 55.60026449 51.05550615 53.28348674 48.640625 50.80078125 C48.1325531 50.28750778 47.6244812 49.77423431 47.10101318 49.2454071 C45.47916351 47.60580301 43.8641434 45.95968847 42.25 44.3125 C40.1336727 42.15931963 38.01410109 40.009412 35.890625 37.86328125 C35.37521652 37.34223816 34.85980804 36.82119507 34.32878113 36.28436279 C30.98797403 32.93010242 27.53738082 29.78166893 23.93505859 26.71459961 C19.13327786 22.4598802 14.74566954 17.73807625 10.27148438 13.14453125 C9.50513672 12.36722656 8.73878906 11.58992187 7.94921875 10.7890625 C7.26174561 10.08475098 6.57427246 9.38043945 5.8659668 8.65478516 C4.00001627 6.78175098 4.00001627 6.78175098 1 6 C0.67 4.02 0.34 2.04 0 0 Z " fill="#FBFBFB" transform="translate(196,130)"/>
<path d="M0 0 C2.27851814 -0.0043608 4.55507784 -0.04066425 6.83325195 -0.07861328 C8.29613601 -0.08448474 9.7590292 -0.08845193 11.22192383 -0.09033203 C12.23166008 -0.11188858 12.23166008 -0.11188858 13.26179504 -0.13388062 C19.20677728 -0.07736261 23.48685676 1.92930378 27.74145508 6.08935547 C28.19262695 6.67716797 28.64379883 7.26498047 29.10864258 7.87060547 C32.34150677 11.77943218 35.87886448 15.19702658 39.60864258 18.62060547 C40.1592334 19.12785156 40.70982422 19.63509766 41.27709961 20.15771484 C43.68858634 22.35776963 46.10697419 24.46794423 48.67114258 26.49169922 C50.84795087 28.26035596 52.56554285 30.03575921 54.35864258 32.18310547 C58.74014961 37.29328645 63.35016633 42.01324874 68.48364258 46.37060547 C72.69901577 49.9931918 76.57528734 53.92442126 80.48364258 57.87060547 C85.48901129 62.91942994 90.53549481 67.7974279 95.98364258 72.37060547 C100.35096695 76.10309985 104.59253745 79.77833238 108.29614258 84.18310547 C113.86379636 90.76542513 120.48737375 96.53011219 127.15551758 101.97216797 C129.45319239 103.92074854 131.29015949 105.73335157 133.17114258 108.05810547 C136.95158352 112.53516699 141.28629163 116.27532427 145.72583008 120.07373047 C147.90608933 122.29171047 148.78012253 123.30423676 148.98364258 126.37060547 C147.35332637 128.00092167 145.51810333 127.51444922 143.26782227 127.53173828 C142.26297791 127.54134583 141.25813354 127.55095337 140.22283936 127.56085205 C139.12812317 127.56510193 138.03340698 127.56935181 136.90551758 127.57373047 C135.7867926 127.57943054 134.66806763 127.58513062 133.51544189 127.59100342 C131.14140779 127.60047193 128.76736042 127.60699471 126.39331055 127.61083984 C122.76303038 127.62052705 119.13332051 127.6515261 115.50317383 127.68310547 C113.19979178 127.68963699 110.89640568 127.69488687 108.59301758 127.69873047 C106.96308868 127.71725067 106.96308868 127.71725067 105.30023193 127.73614502 C95.97564246 127.70864103 95.97564246 127.70864103 91.98364258 124.37060547 C91.15123047 123.70387817 91.15123047 123.70387817 90.30200195 123.02368164 C89.81538086 122.57484619 89.32875977 122.12601074 88.82739258 121.66357422 C88.27954102 121.15890625 87.73168945 120.65423828 87.16723633 120.13427734 C86.61165039 119.61414063 86.05606445 119.09400391 85.48364258 118.55810547 C84.92805664 118.04957031 84.3724707 117.54103516 83.80004883 117.01708984 C81.12391741 114.53301021 78.62459209 112.02297769 76.31176758 109.19482422 C74.38091977 106.85253736 72.54291987 104.93974062 70.23364258 102.99560547 C69.55817383 102.41681641 68.88270508 101.83802734 68.18676758 101.24169922 C67.45973633 100.62423828 66.73270508 100.00677734 65.98364258 99.37060547 C64.31127374 97.93974331 62.64454836 96.50225782 60.98364258 95.05810547 C60.22051758 94.40197266 59.45739258 93.74583984 58.67114258 93.06982422 C56.98364258 91.37060547 56.98364258 91.37060547 56.98364258 89.37060547 C55.49864258 88.87560547 55.49864258 88.87560547 53.98364258 88.37060547 C52.37036133 86.69873047 52.37036133 86.69873047 50.67114258 84.62060547 C48.44137718 81.97335208 46.26063337 79.64404131 43.54614258 77.49560547 C42.27770508 76.44373047 42.27770508 76.44373047 40.98364258 75.37060547 C40.98364258 74.71060547 40.98364258 74.05060547 40.98364258 73.37060547 C40.42676758 73.12310547 39.86989258 72.87560547 39.29614258 72.62060547 C34.26062586 69.89870454 30.87839198 66.21898578 27.41333008 61.76123047 C25.9576356 60.02198238 25.9576356 60.02198238 22.98364258 60.37060547 C22.65364258 71.92060547 22.32364258 83.47060547 21.98364258 95.37060547 C18.98364258 95.37060547 18.98364258 95.37060547 15.98364258 94.37060547 C14.55395508 92.47998047 14.55395508 92.47998047 13.10864258 90.12060547 C10.70218515 86.372651 8.21891029 83.45539561 4.98364258 80.37060547 C-1.32296373 73.61969813 -7.23202353 66.57060808 -13.01635742 59.37060547 C-14.1049707 58.06542969 -14.1049707 58.06542969 -15.21557617 56.73388672 C-17.82711627 53.3065944 -18.14062857 50.71208261 -18.12988281 46.53198242 C-18.12980728 45.55119217 -18.12973175 44.57040192 -18.12965393 43.55989075 C-18.12449265 42.50355942 -18.11933136 41.44722809 -18.11401367 40.35888672 C-18.11259872 39.27552536 -18.11118378 38.192164 -18.10972595 37.07597351 C-18.10412301 33.61165622 -18.09157 30.14740327 -18.07885742 26.68310547 C-18.0738428 24.33610119 -18.06927983 21.98909591 -18.06518555 19.64208984 C-18.05415263 13.88490639 -18.03741163 8.12776052 -18.01635742 2.37060547 C-12.39909377 -0.71187389 -6.25362405 -0.00134155 0 0 Z " fill="#FBFBFB" transform="translate(160.016357421875,264.62939453125)"/>
<path d="M0 0 C0.83920486 0.00424484 1.67840973 0.00848969 2.54304504 0.01286316 C5.2230337 0.02965411 7.90226995 0.06730645 10.58203125 0.10546875 C12.39907768 0.12051508 14.2161359 0.13420357 16.03320312 0.14648438 C20.48726901 0.17955893 24.94077257 0.23134362 29.39453125 0.29296875 C30.81150318 3.12691262 30.51399054 5.50170613 30.50805664 8.67041016 C30.50820267 9.32419144 30.50834869 9.97797272 30.50849915 10.65156555 C30.50780161 12.81592102 30.50001665 14.98019079 30.4921875 17.14453125 C30.49032276 18.64382887 30.48889912 20.14312709 30.48789978 21.64242554 C30.48407904 25.59128497 30.47425253 29.54010771 30.4631958 33.48895264 C30.45297216 37.51736962 30.44840012 41.54579253 30.44335938 45.57421875 C30.43262987 53.4804856 30.41555875 61.38672261 30.39453125 69.29296875 C25.75500154 68.54271168 23.88673796 67.27107876 20.56640625 63.890625 C19.6846875 63.00052734 18.80296875 62.11042969 17.89453125 61.19335938 C16.98703125 60.25685547 16.07953125 59.32035156 15.14453125 58.35546875 C14.2215625 57.42283203 13.29859375 56.49019531 12.34765625 55.52929688 C5.56299376 48.62989377 5.56299376 48.62989377 4.39453125 46.29296875 C0.30986985 47.65227724 -2.07411862 49.40478311 -5.07421875 52.46875 C-5.89277344 53.29697266 -6.71132813 54.12519531 -7.5546875 54.97851562 C-8.39644531 55.84541016 -9.23820312 56.71230469 -10.10546875 57.60546875 C-10.94722656 58.46076172 -11.78898437 59.31605469 -12.65625 60.19726562 C-14.27493902 61.84272036 -15.89025603 63.49150104 -17.50170898 65.14404297 C-19.16754341 66.84564151 -20.84803866 68.52695279 -22.546875 70.1953125 C-24.23626232 71.91675651 -25.6419383 73.59281648 -27.04296875 75.54296875 C-29.60546875 78.29296875 -29.60546875 78.29296875 -32.66796875 79.41796875 C-35.60546875 79.29296875 -35.60546875 79.29296875 -37.98046875 77.48046875 C-39.60546875 75.29296875 -39.60546875 75.29296875 -39.60546875 73.29296875 C-41.09046875 72.79796875 -41.09046875 72.79796875 -42.60546875 72.29296875 C-44.078125 70.7265625 -44.078125 70.7265625 -45.66796875 68.73046875 C-49.18803837 64.50789597 -53.16226984 61.47408752 -57.6640625 58.34765625 C-59.60546875 56.29296875 -59.60546875 56.29296875 -60.1640625 53.32421875 C-59.45586063 49.48110932 -58.21634697 48.37637322 -55.23046875 45.91796875 C-54.41835938 45.22960937 -53.60625 44.54125 -52.76953125 43.83203125 C-50.60546875 42.29296875 -50.60546875 42.29296875 -48.60546875 42.29296875 C-48.35796875 41.73609375 -48.11046875 41.17921875 -47.85546875 40.60546875 C-45.3823264 36.0301554 -42.21977724 32.90565336 -38.1796875 29.6796875 C-36.44429702 28.15099365 -35.01878045 26.50978928 -33.54296875 24.73046875 C-31.14282597 21.84525774 -28.70840234 19.44778374 -25.60546875 17.29296875 C-24.94546875 17.29296875 -24.28546875 17.29296875 -23.60546875 17.29296875 C-23.35796875 16.73609375 -23.11046875 16.17921875 -22.85546875 15.60546875 C-20.02384179 10.36695887 -16.1574082 6.97326022 -11.60546875 3.29296875 C-11.128853 2.75600876 -10.65223724 2.21904877 -10.16117859 1.66581726 C-7.37220837 -0.79533168 -3.54171876 -0.06722831 0 0 Z " fill="#FDFDFD" transform="translate(374.60546875,108.70703125)"/>
<path d="M0 0 C7.31397841 -0.07608962 14.62785466 -0.12861664 21.94213867 -0.16479492 C24.4301332 -0.17987761 26.91810117 -0.20034654 29.40600586 -0.22631836 C32.98297688 -0.26272337 36.55959622 -0.27973184 40.13671875 -0.29296875 C41.80416389 -0.31619453 41.80416389 -0.31619453 43.5052948 -0.33988953 C44.54599625 -0.34011612 45.58669769 -0.34034271 46.65893555 -0.34057617 C48.02794258 -0.35056892 48.02794258 -0.35056892 49.42460632 -0.36076355 C60.19552558 1.14803687 70.51422935 15.42651589 77.75878906 22.79541016 C81.71090969 26.79640208 85.76033037 30.57779993 90.02246094 34.24511719 C93.44048714 37.27829896 96.61507873 40.55015647 99.8125 43.8125 C101.10830637 45.1338395 102.40639155 46.45294908 103.70703125 47.76953125 C104.2688208 48.34292236 104.83061035 48.91631348 105.40942383 49.50708008 C107.13564277 51.20957915 107.13564277 51.20957915 110 53 C110 53.66 110 54.32 110 55 C110.55397461 55.22727783 111.10794922 55.45455566 111.67871094 55.6887207 C114.67733434 57.38262124 116.72794461 59.52222907 119.140625 61.98046875 C119.62650085 62.47154617 120.11237671 62.9626236 120.61297607 63.46858215 C122.16350303 65.03685648 123.70719156 66.61163482 125.25 68.1875 C127.27256105 70.24694569 129.29846779 72.30301616 131.328125 74.35546875 C131.81671997 74.85001556 132.30531494 75.34456238 132.80871582 75.85409546 C136.22596873 79.28756267 139.75630651 82.52863792 143.46777344 85.63989258 C145.59896709 87.5316835 147.22212112 89.7776514 149 92 C151.5927609 94.42105488 154.29570219 96.70513793 157 99 C157.95712891 99.84691406 157.95712891 99.84691406 158.93359375 100.7109375 C159.53300781 101.23945313 160.13242188 101.76796875 160.75 102.3125 C161.54664063 103.01826172 161.54664063 103.01826172 162.359375 103.73828125 C164.14557085 105.11195092 165.97735401 106.01808501 168 107 C167.98525131 106.40309357 167.97050262 105.80618713 167.95530701 105.19119263 C167.80322549 98.99494887 167.65839177 92.79856617 167.51782227 86.60205078 C167.46435579 84.28755365 167.40902294 81.97309887 167.35180664 79.65869141 C167.2700253 76.33765802 167.19489267 73.01653164 167.12109375 69.6953125 C167.08054115 68.13588425 167.08054115 68.13588425 167.03916931 66.54495239 C167.01907303 65.58410736 166.99897675 64.62326233 166.97827148 63.63330078 C166.94829323 62.36089035 166.94829323 62.36089035 166.91770935 61.06277466 C167 59 167 59 168 57 C170.07421875 56.55859375 170.07421875 56.55859375 173 57 C175.56860242 59.08144014 177.65776406 61.56394827 179.8125 64.0625 C183.95430574 68.76762826 188.13719785 73.08904877 192.90893555 77.15795898 C197.60566281 81.2953562 201.90297919 85.86719385 206.2890625 90.328125 C209.76640264 93.841314 213.25002899 97.27725264 217 100.5 C222.39677457 105.13802012 227.30354364 110.25752903 232.2890625 115.328125 C235.7458443 118.82054373 239.2060483 122.23804242 242.9375 125.4375 C248.81410182 130.48788651 254.14430553 136.10103744 259.578125 141.6171875 C264.00067621 146.08043703 268.47495017 150.38132973 273.24462891 154.47167969 C275.66966718 156.5830482 277.93117163 158.83554446 280.1875 161.125 C280.98542969 161.93195313 281.78335937 162.73890625 282.60546875 163.5703125 C284.17274603 165.16060038 285.73918571 166.75171428 287.3046875 168.34375 C291.45075739 172.42973192 295.74298758 176.3587533 300.02929688 180.296875 C303.85278646 183.84855253 307.36526273 187.4828345 310.70629883 191.49072266 C312.29312544 193.34197046 314.01033565 194.93144115 315.875 196.5 C316.55046875 197.0775 317.2259375 197.655 317.921875 198.25 C318.60765625 198.8275 319.2934375 199.405 320 200 C323.92945386 203.30901378 327.72124575 206.53004891 331 210.5 C333.58241186 213.61670396 336.39218515 216.17197215 339.46875 218.79296875 C344.85758195 223.49156451 350.03272696 228.42649574 355.22607422 233.33886719 C356.80048577 234.81317165 358.39523832 236.25866816 360.00390625 237.6953125 C360.82761719 238.45585937 361.65132813 239.21640625 362.5 240 C363.2115625 240.639375 363.923125 241.27875 364.65625 241.9375 C366 244 366 244 365.95703125 247.02734375 C364.8798306 250.37326086 363.93563328 251.44659033 361.1875 253.5625 C357.98645637 256.15409226 355.5079954 258.7136612 353 262 C351.3545622 263.68762851 349.68711423 265.3540349 348 267 C347.21625 267.94875 346.4325 268.8975 345.625 269.875 C343 272 343 272 339.5 272.125 C335.42549155 270.81533657 333.67355837 269.30263093 331 266 C330.67 265.01 330.34 264.02 330 263 C328.68587739 262.29622163 327.34955861 261.63317753 326 261 C324.34008789 259.56713867 324.34008789 259.56713867 322.72265625 257.91796875 C322.12646484 257.31533203 321.53027344 256.71269531 320.91601562 256.09179688 C320.30435547 255.46337891 319.69269531 254.83496094 319.0625 254.1875 C318.45470703 253.57068359 317.84691406 252.95386719 317.22070312 252.31835938 C315.4773132 250.54863994 313.73819986 248.77481525 312 247 C308.59742265 243.53841842 305.12597159 240.37898344 301.35546875 237.33203125 C300.90816406 236.89246094 300.46085937 236.45289063 300 236 C300 235.34 300 234.68 300 234 C299.44183594 233.76925781 298.88367188 233.53851563 298.30859375 233.30078125 C295.38710799 231.65466491 293.39945334 229.58926868 291.0625 227.1875 C290.22847656 226.33542969 289.39445312 225.48335937 288.53515625 224.60546875 C287.28025391 223.31576172 287.28025391 223.31576172 286 222 C284.33459548 220.33207214 282.66801129 218.66532095 281 217 C280.35417969 216.34257812 279.70835937 215.68515625 279.04296875 215.0078125 C278.43066406 214.38648438 277.81835938 213.76515625 277.1875 213.125 C276.58292969 212.50882813 275.97835938 211.89265625 275.35546875 211.2578125 C273.41017105 209.39316562 271.43134615 207.64249893 269.38671875 205.890625 C264.20930231 201.39234219 259.4368308 196.50748911 254.625 191.625 C252.8486586 189.82324599 251.07012661 188.02364817 249.2890625 186.2265625 C248.12431396 185.04441162 248.12431396 185.04441162 246.93603516 183.83837891 C245.12774043 181.94237659 245.12774043 181.94237659 243 181 C243.33 180.34 243.66 179.68 244 179 C250.79941338 184.76190071 257.0445127 190.97701291 263.2890625 197.328125 C267.39511971 201.4765127 271.57810169 205.42299977 276.00390625 209.2265625 C280.42797108 213.15714065 284.49980444 217.463371 288.64453125 221.68359375 C291.96225481 225.03770915 295.29077042 228.30539186 298.875 231.375 C304.99990451 236.64470644 310.55427478 242.51201187 316.22265625 248.26171875 C320.79301877 252.8719971 325.40274118 257.33800242 330.33398438 261.56103516 C332.31222498 263.2696738 334.17112344 265.07052184 336 266.9375 C336.5775 267.52402344 337.155 268.11054688 337.75 268.71484375 C338.36875 269.35099609 338.36875 269.35099609 339 270 C342.24900717 268.91699761 342.74706612 268.36840631 344.8125 265.8125 C350.44653654 259.1418983 356.79254372 253.1299707 363 247 C361.54844106 243.66421487 359.72074062 241.47501397 357.1484375 238.91796875 C356.37886719 238.15033203 355.60929687 237.38269531 354.81640625 236.59179688 C354.01074219 235.79837891 353.20507812 235.00496094 352.375 234.1875 C351.59253906 233.40568359 350.81007813 232.62386719 350.00390625 231.81835938 C346.43966634 228.28071827 342.85090978 224.8212274 339.0390625 221.55078125 C333.17478009 216.49996922 327.84940193 210.89257469 322.421875 205.3828125 C318.07603917 200.99698431 313.67849221 196.78770818 308.9921875 192.76953125 C304.34313762 188.64008107 300.06849096 184.10378944 295.7109375 179.671875 C292.26443614 176.1898427 288.81596447 172.78153125 285.09375 169.59375 C278.97725846 164.33720083 273.43517086 158.47728235 267.77734375 152.73828125 C263.32702485 148.24909493 258.83722804 143.92537376 254.03710938 139.81445312 C248.92603941 135.26202359 244.22307037 130.25675326 239.421875 125.3828125 C235.70782153 121.63458062 232.00716648 117.93586363 228 114.5 C222.14033045 109.47574519 216.83463192 103.87758088 211.421875 98.3828125 C207.71169313 94.63848785 204.0154597 90.94313685 200.01171875 87.51171875 C195.00653756 83.2206654 190.43689385 78.50586318 185.8125 73.8125 C184.07142108 72.04579814 182.32800817 70.28139273 180.58203125 68.51953125 C179.82124268 67.74714111 179.0604541 66.97475098 178.27661133 66.17895508 C175.99097563 63.91544385 175.99097563 63.91544385 173.21362305 61.8425293 C172.48312744 61.23449463 171.75263184 60.62645996 171 60 C171 59.34 171 58.68 171 58 C170.34 58 169.68 58 169 58 C169 75.82 169 93.64 169 112 C165.44286117 110.22143058 163.88610569 109.08476818 161.25 106.3125 C158.69099528 103.6298459 156.04161057 101.14735314 153.234375 98.73046875 C148.2309909 94.39114271 143.63479366 89.68625447 139 84.9609375 C135.78049134 81.70370022 132.53675099 78.54829194 129.0625 75.5625 C123.64834097 70.89913255 118.71736288 65.76373426 113.7109375 60.671875 C110.24387613 57.16907073 106.77195398 53.74236279 103.03125 50.53125 C97.39455369 45.68703971 92.27612862 40.32068928 87.06640625 35.02734375 C86.27105469 34.22425781 85.47570312 33.42117187 84.65625 32.59375 C83.60147461 31.52157227 83.60147461 31.52157227 82.52539062 30.42773438 C80.46859547 28.45047499 78.37875761 26.63083176 76.19873047 24.79638672 C73.20272537 22.21023755 70.69502513 19.52021442 68.21728516 16.43603516 C61.3444747 8.1416393 55.56570744 2.18444128 44.46038818 1.13641357 C38.74430542 0.94504003 33.08575243 1.11199427 27.375 1.375 C25.00013322 1.4171766 22.62510465 1.45108696 20.25 1.4765625 C14.49466215 1.55598289 8.7497048 1.7365625 3 2 C3.71696045 2.71623535 4.4339209 3.4324707 5.17260742 4.17041016 C7.8674498 6.86519337 10.55312442 9.56900162 13.23828125 12.2734375 C14.7465923 13.78913247 16.2553905 15.30434063 17.7644043 16.81933594 C18.7920057 17.8519611 19.81870714 18.88548268 20.84448242 19.91992188 C26.10547283 25.22398669 31.38458682 30.4297792 37.06713867 35.28759766 C41.700296 39.39230468 45.95142948 43.91647094 50.2890625 48.328125 C53.75612387 51.83092927 57.22804602 55.25763721 60.96875 58.46875 C66.60544631 63.31296029 71.72387138 68.67931072 76.93359375 73.97265625 C80.52936227 77.60339172 84.12146956 81.17057357 88 84.5 C93.62812757 89.33132386 98.73436598 94.68997378 103.93359375 99.97265625 C107.51906059 103.59298987 111.09941892 107.15107054 114.96875 110.46875 C120.8368736 115.50609239 126.15483362 121.11172504 131.578125 126.6171875 C135.90286143 130.98172212 140.27793634 135.17002421 144.94140625 139.16845703 C149.13998045 142.90395319 153.04745061 146.94548583 157 150.9375 C157.87011719 151.81212891 158.74023438 152.68675781 159.63671875 153.58789062 C161.76013549 155.72297449 163.88116378 157.86037205 166 160 C162.3716158 160 161.97316098 159.38511274 159.41796875 156.96484375 C158.73283203 156.31966797 158.04769531 155.67449219 157.34179688 155.00976562 C156.27541992 153.98399414 156.27541992 153.98399414 155.1875 152.9375 C154.48818359 152.28072266 153.78886719 151.62394531 153.06835938 150.94726562 C149.22927683 147.30211242 145.67461479 143.55012241 142.28051758 139.48950195 C140.73405183 137.69064828 139.06870631 136.14595351 137.25 134.625 C136.5796875 134.05265625 135.909375 133.4803125 135.21875 132.890625 C134.4865625 132.26671875 133.754375 131.6428125 133 131 C131.24351753 129.46572315 129.4936865 127.92380389 127.75 126.375 C126.94046875 125.66085937 126.1309375 124.94671875 125.296875 124.2109375 C123 122 123 122 120.890625 119.3515625 C119.04189667 116.81062111 119.04189667 116.81062111 116 115 C116 114.34 116 113.68 116 113 C115.41081787 112.73227783 114.82163574 112.46455566 114.21459961 112.1887207 C111.97333165 110.98568535 110.41031708 109.72212944 108.56640625 107.98046875 C107.92380859 107.37654297 107.28121094 106.77261719 106.61914062 106.15039062 C105.94044922 105.50263672 105.26175781 104.85488281 104.5625 104.1875 C103.85673828 103.52041016 103.15097656 102.85332031 102.42382812 102.16601562 C97.32076937 97.32017675 92.33081714 92.37007427 87.38427734 87.36523438 C83.99419187 83.9484889 80.50156927 80.73310236 76.83984375 77.61328125 C72.59127657 73.88789219 68.47345213 69.94875927 65.0625 65.4375 C62.36768877 62.25272309 59.19201495 59.9977399 55.828125 57.55078125 C55.22484375 57.03902344 54.6215625 56.52726562 54 56 C54 55.34 54 54.68 54 54 C53.443125 53.773125 52.88625 53.54625 52.3125 53.3125 C49.33840412 51.62449964 47.27991135 49.53323483 45 47 C45 46.34 45 45.68 45 45 C44.01 44.67 43.02 44.34 42 44 C40.640625 42.546875 40.640625 42.546875 39.25 40.75 C36.66247022 37.60387198 34.0079337 35.43452841 30.6484375 33.16796875 C28.1342792 31.38661014 26.12322724 29.2267993 24 27 C22.66753966 25.68661374 21.33413175 24.37418841 20 23.0625 C17.71743166 20.79263612 15.68368933 18.59819996 13.6875 16.0625 C10.52798014 12.0582474 6.27786115 9.1960117 2.23046875 6.1484375 C1.49441406 5.43945312 0.75835937 4.73046875 0 4 C0 2.68 0 1.36 0 0 Z " fill="#1E1E1E" transform="translate(63,133)"/>
<path d="M0 0 C7.36429564 -0.22932893 14.72766221 -0.3862717 22.09472656 -0.49438477 C24.5973552 -0.53947863 27.09974892 -0.6007734 29.6015625 -0.67895508 C33.21152809 -0.78889233 36.81834595 -0.83933723 40.4296875 -0.87890625 C41.53738495 -0.92535782 42.6450824 -0.97180939 43.78634644 -1.01966858 C50.30260963 -1.02384611 53.67935529 -0.01562917 58.58642578 4.39477539 C60.07075409 5.91715132 61.54370612 7.45078499 63 9 C64.04570736 9.87464453 65.10581318 10.73276477 66.1875 11.5625 C68.43498977 13.51032447 70.16855025 15.30823786 72.0625 17.5625 C75.3389641 21.41069609 78.91175847 24.83260939 82.625 28.25 C83.17551025 28.75732666 83.72602051 29.26465332 84.29321289 29.78735352 C86.70476148 31.9867701 89.12176422 34.09592472 91.6875 36.1171875 C93.8807031 37.90286975 95.5822987 39.69752379 97.375 41.875 C100.23219893 45.24084314 103.24875633 48.04627421 106.71484375 50.7734375 C107.13894531 51.17820313 107.56304687 51.58296875 108 52 C108 52.66 108 53.32 108 54 C108.85803223 54.36798706 108.85803223 54.36798706 109.73339844 54.7434082 C112.38736797 56.21475473 114.14499183 57.93552401 116.265625 60.10546875 C117.47798828 61.33426758 117.47798828 61.33426758 118.71484375 62.58789062 C119.55144531 63.44576172 120.38804687 64.30363281 121.25 65.1875 C126.40310044 70.44981057 131.55874189 75.59362298 137.15136719 80.3894043 C140.0501696 82.9149457 142.78060252 85.59657114 145.5 88.3125 C146.304375 89.09850586 146.304375 89.09850586 147.125 89.90039062 C148.45717501 91.22746802 149.73407049 92.60958742 151 94 C151 94.66 151 95.32 151 96 C151.59063232 96.26917236 152.18126465 96.53834473 152.78979492 96.81567383 C155.00221741 98.00118819 156.54335988 99.23253655 158.36328125 100.94921875 C158.99556641 101.54283203 159.62785156 102.13644531 160.27929688 102.74804688 C160.95025391 103.38806641 161.62121094 104.02808594 162.3125 104.6875 C163.01310547 105.34943359 163.71371094 106.01136719 164.43554688 106.69335938 C170.02574153 112.00279089 175.47808263 117.44282277 180.90209961 122.92114258 C184.527228 126.5705258 188.22361613 130.05058857 192.1484375 133.37890625 C195.94858386 136.70603861 199.66269931 140.20691056 203 144 C203 144.66 203 145.32 203 146 C203.54527344 146.22816406 204.09054687 146.45632813 204.65234375 146.69140625 C207.70363323 148.3922082 210.001766 150.56490156 212.5625 152.9375 C213.98755859 154.25041016 213.98755859 154.25041016 215.44140625 155.58984375 C221.79225749 161.57224866 221.79225749 161.57224866 222 165 C220.6875 167.25 220.6875 167.25 219 169 C218.34 169 217.68 169 217 169 C216.740979 169.58571777 216.48195801 170.17143555 216.21508789 170.77490234 C214.90997874 173.16484906 213.50660672 174.7071834 211.55859375 176.6015625 C210.55989258 177.58382812 210.55989258 177.58382812 209.54101562 178.5859375 C208.84685547 179.25882813 208.15269531 179.93171875 207.4375 180.625 C206.05901463 181.96911869 204.68260599 183.31537153 203.30859375 184.6640625 C202.69814209 185.25654785 202.08769043 185.8490332 201.45874023 186.45947266 C199.90189218 187.95434048 199.90189218 187.95434048 199 190 C195.99605337 190.47935319 193.86572174 190.61869642 191.32128906 188.80029297 C189.51544266 187.07121332 187.8116214 185.28306023 186.125 183.4375 C184.96369473 182.20442867 183.7996148 180.97396477 182.6328125 179.74609375 C182.04016602 179.1207373 181.44751953 178.49538086 180.83691406 177.85107422 C179.02024123 176.02039727 177.13842949 174.33704009 175.1796875 172.66015625 C169.26137761 167.5778344 163.89251372 161.93633969 158.421875 156.3828125 C153.90555436 151.82493063 149.35715206 147.45172975 144.3984375 143.375 C143.93695313 142.92125 143.47546875 142.4675 143 142 C143 141.34 143 140.68 143 140 C142.40759521 139.73356689 141.81519043 139.46713379 141.20483398 139.19262695 C138.95479475 137.97554782 137.50668388 136.73700372 135.72265625 134.91796875 C134.82836914 134.01401367 134.82836914 134.01401367 133.91601562 133.09179688 C132.99852539 132.14916992 132.99852539 132.14916992 132.0625 131.1875 C131.45470703 130.57068359 130.84691406 129.95386719 130.22070312 129.31835938 C128.47731393 127.54864068 126.73849155 125.77452779 125 124 C122.39348342 121.35651156 119.85282741 118.87735618 117 116.5 C114.1522528 114.12687733 111.60413501 111.63513662 109 109 C108.175 108.175 107.35 107.35 106.5 106.5 C99 99 99 99 96.375 96.34375 C93.96396387 93.89885525 93.96396387 93.89885525 91 91.5 C88.14664065 89.12220054 85.5950694 86.65541985 83 84 C81.50137049 82.49863076 80.00124018 80.99875879 78.5 79.5 C69 70 69 70 67.02734375 67.9921875 C66.31707031 67.27289063 65.60679687 66.55359375 64.875 65.8125 C64.21242188 65.13832031 63.54984375 64.46414062 62.8671875 63.76953125 C60.92056683 61.82446642 60.92056683 61.82446642 58 60 C58 59.34 58 58.68 58 58 C57.45053711 57.77723389 56.90107422 57.55446777 56.33496094 57.32495117 C53.29554627 55.60026449 51.05550615 53.28348674 48.640625 50.80078125 C48.1325531 50.28750778 47.6244812 49.77423431 47.10101318 49.2454071 C45.47916351 47.60580301 43.8641434 45.95968847 42.25 44.3125 C40.1336727 42.15931963 38.01410109 40.009412 35.890625 37.86328125 C35.37521652 37.34223816 34.85980804 36.82119507 34.32878113 36.28436279 C30.98797403 32.93010242 27.53738082 29.78166893 23.93505859 26.71459961 C19.13327786 22.4598802 14.74566954 17.73807625 10.27148438 13.14453125 C9.50513672 12.36722656 8.73878906 11.58992187 7.94921875 10.7890625 C7.26174561 10.08475098 6.57427246 9.38043945 5.8659668 8.65478516 C4.00001627 6.78175098 4.00001627 6.78175098 1 6 C0.67 4.02 0.34 2.04 0 0 Z M2 2 C2.93783238 3.10382774 3.8770764 4.20645621 4.81689453 5.30859375 C5.33978058 5.92275146 5.86266663 6.53690918 6.40139771 7.16967773 C8.78118179 9.89441535 11.30770402 12.45313343 13.875 15 C14.35324219 15.48210937 14.83148438 15.96421875 15.32421875 16.4609375 C18.04515003 19.17468954 20.84095013 21.74773936 23.7578125 24.25 C29.67978296 29.38115269 35.08283962 35.03864022 40.578125 40.6171875 C44.92396083 45.00301569 49.32150779 49.21229182 54.0078125 53.23046875 C58.65686238 57.35991893 62.93150904 61.89621056 67.2890625 66.328125 C70.75612387 69.83092927 74.22804602 73.25763721 77.96875 76.46875 C83.60544631 81.31296029 88.72387138 86.67931072 93.93359375 91.97265625 C97.52936227 95.60339172 101.12146956 99.17057357 105 102.5 C110.62812757 107.33132386 115.73436598 112.68997378 120.93359375 117.97265625 C124.51906059 121.59298987 128.09941892 125.15107054 131.96875 128.46875 C137.8368736 133.50609239 143.15483362 139.11172504 148.578125 144.6171875 C152.92396083 149.00301569 157.32150779 153.21229182 162.0078125 157.23046875 C166.65686238 161.35991893 170.93150904 165.89621056 175.2890625 170.328125 C179.50157581 174.58406628 183.78152557 178.66376144 188.34667969 182.54101562 C190 184 190 184 192.25 186.5 C193.84257158 188.21518235 193.84257158 188.21518235 195.78417969 187.90063477 C198.97042733 186.60556342 200.79807932 184.5368379 203.203125 182.08984375 C203.9271048 181.35949669 203.9271048 181.35949669 204.66571045 180.61439514 C206.2010085 179.0623455 207.72552925 177.50017864 209.25 175.9375 C210.2909722 174.88147643 211.3326314 173.82612962 212.375 172.77148438 C214.92467633 170.18878585 217.46479196 167.59691118 220 165 C218.68729086 162.09778672 217.28101018 160.03287708 215.0234375 157.79296875 C214.43433594 157.20580078 213.84523438 156.61863281 213.23828125 156.01367188 C212.62339844 155.41103516 212.00851562 154.80839844 211.375 154.1875 C210.78332031 153.59646484 210.19164062 153.00542969 209.58203125 152.39648438 C206.51075304 149.3550566 203.37895786 146.43164627 200.1015625 143.61328125 C194.68183875 138.92497749 189.73186994 133.77848888 184.7109375 128.671875 C181.2541557 125.17945627 177.7939517 121.76195758 174.0625 118.5625 C168.18589818 113.51211349 162.85569447 107.89896256 157.421875 102.3828125 C153.08610736 98.00714516 148.69875327 93.80953594 144.0234375 89.80078125 C139.14125184 85.45582451 134.64880498 80.68329623 130.06640625 76.02734375 C125.8453859 71.7652762 121.56031609 67.69341441 117.00976562 63.78710938 C112.3565815 59.64943836 108.07451638 55.10991768 103.7109375 50.671875 C100.2541557 47.17945627 96.7939517 43.76195758 93.0625 40.5625 C87.18589818 35.51211349 81.85569447 29.89896256 76.421875 24.3828125 C72.09588845 20.01701626 67.75637801 15.77360509 63.03100586 11.83996582 C61 10 61 10 59.29125977 7.94787598 C56.59515395 4.76510115 54.43540159 2.3759821 50.3203125 1.2980957 C47.2046428 1.07722818 44.18363914 1.09878721 41.0625 1.21875 C39.38148193 1.23572937 39.38148193 1.23572937 37.66650391 1.25305176 C34.10921706 1.29761093 30.5560552 1.39794454 27 1.5 C24.57948555 1.54015302 22.15890753 1.57665057 19.73828125 1.609375 C13.82412847 1.69727858 7.91235894 1.83091114 2 2 Z " fill="#1C1C1C" transform="translate(196,130)"/>
<path d="M0 0 C2.27851814 -0.0043608 4.55507784 -0.04066425 6.83325195 -0.07861328 C8.29613601 -0.08448474 9.7590292 -0.08845193 11.22192383 -0.09033203 C12.23166008 -0.11188858 12.23166008 -0.11188858 13.26179504 -0.13388062 C19.20677728 -0.07736261 23.48685676 1.92930378 27.74145508 6.08935547 C28.19262695 6.67716797 28.64379883 7.26498047 29.10864258 7.87060547 C32.34150677 11.77943218 35.87886448 15.19702658 39.60864258 18.62060547 C40.1592334 19.12785156 40.70982422 19.63509766 41.27709961 20.15771484 C43.68858634 22.35776963 46.10697419 24.46794423 48.67114258 26.49169922 C50.84795087 28.26035596 52.56554285 30.03575921 54.35864258 32.18310547 C58.74014961 37.29328645 63.35016633 42.01324874 68.48364258 46.37060547 C72.69901577 49.9931918 76.57528734 53.92442126 80.48364258 57.87060547 C85.48901129 62.91942994 90.53549481 67.7974279 95.98364258 72.37060547 C100.35096695 76.10309985 104.59253745 79.77833238 108.29614258 84.18310547 C113.86379636 90.76542513 120.48737375 96.53011219 127.15551758 101.97216797 C129.45319239 103.92074854 131.29015949 105.73335157 133.17114258 108.05810547 C136.95158352 112.53516699 141.28629163 116.27532427 145.72583008 120.07373047 C147.90608933 122.29171047 148.78012253 123.30423676 148.98364258 126.37060547 C147.35332637 128.00092167 145.51810333 127.51444922 143.26782227 127.53173828 C142.26297791 127.54134583 141.25813354 127.55095337 140.22283936 127.56085205 C139.12812317 127.56510193 138.03340698 127.56935181 136.90551758 127.57373047 C135.7867926 127.57943054 134.66806763 127.58513062 133.51544189 127.59100342 C131.14140779 127.60047193 128.76736042 127.60699471 126.39331055 127.61083984 C122.76303038 127.62052705 119.13332051 127.6515261 115.50317383 127.68310547 C113.19979178 127.68963699 110.89640568 127.69488687 108.59301758 127.69873047 C106.96308868 127.71725067 106.96308868 127.71725067 105.30023193 127.73614502 C95.97564246 127.70864103 95.97564246 127.70864103 91.98364258 124.37060547 C91.15123047 123.70387817 91.15123047 123.70387817 90.30200195 123.02368164 C89.81538086 122.57484619 89.32875977 122.12601074 88.82739258 121.66357422 C88.27954102 121.15890625 87.73168945 120.65423828 87.16723633 120.13427734 C86.61165039 119.61414063 86.05606445 119.09400391 85.48364258 118.55810547 C84.92805664 118.04957031 84.3724707 117.54103516 83.80004883 117.01708984 C81.12391741 114.53301021 78.62459209 112.02297769 76.31176758 109.19482422 C74.38091977 106.85253736 72.54291987 104.93974062 70.23364258 102.99560547 C69.55817383 102.41681641 68.88270508 101.83802734 68.18676758 101.24169922 C67.45973633 100.62423828 66.73270508 100.00677734 65.98364258 99.37060547 C64.31127374 97.93974331 62.64454836 96.50225782 60.98364258 95.05810547 C60.22051758 94.40197266 59.45739258 93.74583984 58.67114258 93.06982422 C56.98364258 91.37060547 56.98364258 91.37060547 56.98364258 89.37060547 C55.49864258 88.87560547 55.49864258 88.87560547 53.98364258 88.37060547 C52.37036133 86.69873047 52.37036133 86.69873047 50.67114258 84.62060547 C48.44137718 81.97335208 46.26063337 79.64404131 43.54614258 77.49560547 C42.27770508 76.44373047 42.27770508 76.44373047 40.98364258 75.37060547 C40.98364258 74.71060547 40.98364258 74.05060547 40.98364258 73.37060547 C40.42676758 73.12310547 39.86989258 72.87560547 39.29614258 72.62060547 C34.26062586 69.89870454 30.87839198 66.21898578 27.41333008 61.76123047 C25.9576356 60.02198238 25.9576356 60.02198238 22.98364258 60.37060547 C22.65364258 71.92060547 22.32364258 83.47060547 21.98364258 95.37060547 C18.98364258 95.37060547 18.98364258 95.37060547 15.98364258 94.37060547 C14.55395508 92.47998047 14.55395508 92.47998047 13.10864258 90.12060547 C10.70218515 86.372651 8.21891029 83.45539561 4.98364258 80.37060547 C-1.32296373 73.61969813 -7.23202353 66.57060808 -13.01635742 59.37060547 C-14.1049707 58.06542969 -14.1049707 58.06542969 -15.21557617 56.73388672 C-17.82711627 53.3065944 -18.14062857 50.71208261 -18.12988281 46.53198242 C-18.12980728 45.55119217 -18.12973175 44.57040192 -18.12965393 43.55989075 C-18.12449265 42.50355942 -18.11933136 41.44722809 -18.11401367 40.35888672 C-18.11259872 39.27552536 -18.11118378 38.192164 -18.10972595 37.07597351 C-18.10412301 33.61165622 -18.09157 30.14740327 -18.07885742 26.68310547 C-18.0738428 24.33610119 -18.06927983 21.98909591 -18.06518555 19.64208984 C-18.05415263 13.88490639 -18.03741163 8.12776052 -18.01635742 2.37060547 C-12.39909377 -0.71187389 -6.25362405 -0.00134155 0 0 Z M-16.01635742 2.37060547 C-16.2973135 9.41309872 -16.48872286 16.45412889 -16.62060547 23.50097656 C-16.67562526 25.89312731 -16.75047131 28.2849132 -16.84619141 30.67578125 C-18.05302864 45.82771569 -18.05302864 45.82771569 -12.25801086 59.17926025 C-9.98837963 61.42589716 -7.51486843 63.38548713 -5.01635742 65.37060547 C-3.43038471 67.20828109 -1.88145546 69.07936724 -0.39135742 70.99560547 C3.2307355 75.49244355 7.01088639 79.80042968 10.90161133 84.06591797 C12.80714505 86.17523297 14.65376431 88.32071435 16.48364258 90.49560547 C17.30864258 91.44435547 18.13364258 92.39310547 18.98364258 93.37060547 C19.31364258 93.37060547 19.64364258 93.37060547 19.98364258 93.37060547 C20.31364258 80.17060547 20.64364258 66.97060547 20.98364258 53.37060547 C25.60364258 57.99060547 30.22364258 62.61060547 34.98364258 67.37060547 C38.03998802 70.07678307 38.03998802 70.07678307 41.13208008 72.74169922 C45.74908694 76.8034964 49.96365937 81.31615156 54.27270508 85.69873047 C57.7050693 89.16647989 61.13738546 92.5621959 64.84692383 95.73388672 C70.24575314 100.37310863 75.17681086 105.49358405 80.17114258 110.55810547 C82.09914758 112.51291047 84.03059625 114.46422084 85.96411133 116.41357422 C86.80868896 117.26975342 87.6532666 118.12593262 88.5234375 119.00805664 C89.33530518 119.78769775 90.14717285 120.56733887 90.98364258 121.37060547 C92.02294922 122.50187866 92.02294922 122.50187866 93.08325195 123.65600586 C97.66932375 126.36711547 102.18456563 125.86224152 107.40942383 125.76123047 C108.51215134 125.75557068 109.61487885 125.74991089 110.75102234 125.74407959 C114.2665075 125.72172297 117.78096644 125.67152568 121.29614258 125.62060547 C123.68219555 125.60053965 126.06826452 125.58228902 128.4543457 125.56591797 C134.29779368 125.52186048 140.1406448 125.45495465 145.98364258 125.37060547 C144.4648752 122.18119398 142.89423501 120.03813711 140.35864258 117.55810547 C139.72700195 116.93291016 139.09536133 116.30771484 138.44458008 115.66357422 C136.42240739 113.77942284 134.36743933 111.97273355 132.27270508 110.17138672 C126.8000089 105.40839701 121.77807799 100.21272749 116.69458008 95.04248047 C113.23779828 91.55006174 109.77759428 88.13256305 106.04614258 84.93310547 C100.16954076 79.88271895 94.83933704 74.26956803 89.40551758 68.75341797 C85.06974994 64.37775063 80.68239585 60.18014141 76.00708008 56.17138672 C71.12489442 51.82642998 66.63244756 47.0539017 62.05004883 42.39794922 C57.82902847 38.13588167 53.54395867 34.06401988 48.9934082 30.15771484 C44.34022408 26.02004383 40.05815895 21.48052315 35.69458008 17.04248047 C31.43933745 12.74336936 27.108354 8.62035811 22.51489258 4.68310547 C21.64717884 3.93935083 20.79175708 3.17871997 19.98364258 2.37060547 C17.31738227 2.28205386 14.67717143 2.25535874 12.01098633 2.27294922 C10.81452232 2.27507164 10.81452232 2.27507164 9.59388733 2.27723694 C7.03626822 2.2828523 4.4787354 2.29540735 1.92114258 2.30810547 C0.19132613 2.31311849 -1.53849168 2.31768174 -3.26831055 2.32177734 C-7.51769295 2.33282672 -11.76701054 2.35010161 -16.01635742 2.37060547 Z " fill="#1E1E1E" transform="translate(160.016357421875,264.62939453125)"/>
<path d="M0 0 C0.83920486 0.00424484 1.67840973 0.00848969 2.54304504 0.01286316 C5.2230337 0.02965411 7.90226995 0.06730645 10.58203125 0.10546875 C12.39907768 0.12051508 14.2161359 0.13420357 16.03320312 0.14648438 C20.48726901 0.17955893 24.94077257 0.23134362 29.39453125 0.29296875 C30.81150318 3.12691262 30.51399054 5.50170613 30.50805664 8.67041016 C30.50820267 9.32419144 30.50834869 9.97797272 30.50849915 10.65156555 C30.50780161 12.81592102 30.50001665 14.98019079 30.4921875 17.14453125 C30.49032276 18.64382887 30.48889912 20.14312709 30.48789978 21.64242554 C30.48407904 25.59128497 30.47425253 29.54010771 30.4631958 33.48895264 C30.45297216 37.51736962 30.44840012 41.54579253 30.44335938 45.57421875 C30.43262987 53.4804856 30.41555875 61.38672261 30.39453125 69.29296875 C25.75500154 68.54271168 23.88673796 67.27107876 20.56640625 63.890625 C19.6846875 63.00052734 18.80296875 62.11042969 17.89453125 61.19335938 C16.98703125 60.25685547 16.07953125 59.32035156 15.14453125 58.35546875 C14.2215625 57.42283203 13.29859375 56.49019531 12.34765625 55.52929688 C5.56299376 48.62989377 5.56299376 48.62989377 4.39453125 46.29296875 C0.30986985 47.65227724 -2.07411862 49.40478311 -5.07421875 52.46875 C-5.89277344 53.29697266 -6.71132813 54.12519531 -7.5546875 54.97851562 C-8.39644531 55.84541016 -9.23820312 56.71230469 -10.10546875 57.60546875 C-10.94722656 58.46076172 -11.78898437 59.31605469 -12.65625 60.19726562 C-14.27493902 61.84272036 -15.89025603 63.49150104 -17.50170898 65.14404297 C-19.16754341 66.84564151 -20.84803866 68.52695279 -22.546875 70.1953125 C-24.23626232 71.91675651 -25.6419383 73.59281648 -27.04296875 75.54296875 C-29.60546875 78.29296875 -29.60546875 78.29296875 -32.66796875 79.41796875 C-35.60546875 79.29296875 -35.60546875 79.29296875 -37.98046875 77.48046875 C-39.60546875 75.29296875 -39.60546875 75.29296875 -39.60546875 73.29296875 C-41.09046875 72.79796875 -41.09046875 72.79796875 -42.60546875 72.29296875 C-44.078125 70.7265625 -44.078125 70.7265625 -45.66796875 68.73046875 C-49.18803837 64.50789597 -53.16226984 61.47408752 -57.6640625 58.34765625 C-59.60546875 56.29296875 -59.60546875 56.29296875 -60.171875 53.32421875 C-59.44734285 49.44672257 -58.1433042 48.36511397 -55.10546875 45.91796875 C-54.27015625 45.22960937 -53.43484375 44.54125 -52.57421875 43.83203125 C-51.92453125 43.32414062 -51.27484375 42.81625 -50.60546875 42.29296875 C-49.94546875 42.62296875 -49.28546875 42.95296875 -48.60546875 43.29296875 C-49.19457031 43.8240625 -49.78367187 44.35515625 -50.390625 44.90234375 C-51.14214844 45.60875 -51.89367187 46.31515625 -52.66796875 47.04296875 C-53.42207031 47.7390625 -54.17617188 48.43515625 -54.953125 49.15234375 C-56.81690728 51.08380575 -56.81690728 51.08380575 -56.50195312 53.11523438 C-55.23637236 56.18957544 -53.28167637 57.95226187 -50.9140625 60.27734375 C-50.4493605 60.7378009 -49.98465851 61.19825806 -49.50587463 61.67266846 C-48.02515056 63.13664686 -46.53432356 64.58982916 -45.04296875 66.04296875 C-44.03512211 67.03576324 -43.02795242 68.02924545 -42.02148438 69.0234375 C-39.55727414 71.45463348 -37.08389546 73.87625743 -34.60546875 76.29296875 C-26.23395018 72.29909571 -20.06575595 64.80311791 -14.05078125 57.92578125 C-10.73038018 54.35078073 -7.15110401 51.10681104 -3.50244141 47.87158203 C-0.66153842 45.40022363 -0.66153842 45.40022363 1.39453125 42.29296875 C11.94388615 47.5676462 19.05453391 57.95297141 27.39453125 66.29296875 C27.72453125 45.17296875 28.05453125 24.05296875 28.39453125 2.29296875 C5.03418713 0.10922217 5.03418713 0.10922217 -16.21435547 8.37060547 C-18.66453418 11.22528488 -20.71101036 14.03752473 -22.60546875 17.29296875 C-22.60546875 13.11594807 -20.37561972 11.15690087 -17.60546875 8.29296875 C-15.65586422 6.55294671 -13.64348711 4.93224439 -11.60546875 3.29296875 C-11.13014206 2.75729782 -10.65481537 2.22162689 -10.16508484 1.66972351 C-7.37328487 -0.79474446 -3.54567967 -0.0673035 0 0 Z " fill="#2C2C2C" transform="translate(374.60546875,108.70703125)"/>
<path d="M0 0 C7.36429564 -0.22932893 14.72766221 -0.3862717 22.09472656 -0.49438477 C24.5973552 -0.53947863 27.09974892 -0.6007734 29.6015625 -0.67895508 C33.21152809 -0.78889233 36.81834595 -0.83933723 40.4296875 -0.87890625 C41.53738495 -0.92535782 42.6450824 -0.97180939 43.78634644 -1.01966858 C50.30260963 -1.02384611 53.67935529 -0.01562917 58.58642578 4.39477539 C60.07075409 5.91715132 61.54370612 7.45078499 63 9 C64.04570736 9.87464453 65.10581318 10.73276477 66.1875 11.5625 C68.43498977 13.51032447 70.16855025 15.30823786 72.0625 17.5625 C75.3389641 21.41069609 78.91175847 24.83260939 82.625 28.25 C83.17551025 28.75732666 83.72602051 29.26465332 84.29321289 29.78735352 C86.70476148 31.9867701 89.12176422 34.09592472 91.6875 36.1171875 C93.8807031 37.90286975 95.5822987 39.69752379 97.375 41.875 C100.23219893 45.24084314 103.24875633 48.04627421 106.71484375 50.7734375 C107.13894531 51.17820313 107.56304687 51.58296875 108 52 C108 52.66 108 53.32 108 54 C108.85803223 54.36798706 108.85803223 54.36798706 109.73339844 54.7434082 C112.38736797 56.21475473 114.14499183 57.93552401 116.265625 60.10546875 C117.47798828 61.33426758 117.47798828 61.33426758 118.71484375 62.58789062 C119.55144531 63.44576172 120.38804687 64.30363281 121.25 65.1875 C126.40244191 70.44913808 131.55819115 75.58716525 137.15136719 80.38061523 C140.06717885 82.93483853 142.78281439 85.67525902 145.5 88.4375 C146.03625 88.97826172 146.5725 89.51902344 147.125 90.07617188 C148.41904036 91.38176617 149.70988174 92.69052996 151 94 C150.67 94.66 150.34 95.32 150 96 C142.96327395 90.0503268 136.52587137 83.5904921 130.06640625 77.02734375 C125.8453859 72.7652762 121.56031609 68.69341441 117.00976562 64.78710938 C112.3565815 60.64943836 108.07451638 56.10991768 103.7109375 51.671875 C100.2541557 48.17945627 96.7939517 44.76195758 93.0625 41.5625 C87.18589818 36.51211349 81.85569447 30.89896256 76.421875 25.3828125 C72.0960211 21.01715013 67.75615509 16.77453144 63.03186035 12.83996582 C61 11 61 11 59.28356934 8.94787598 C56.60111118 5.79177433 54.441867 3.38322711 50.35913086 2.2980957 C47.30284441 2.07742049 44.34308097 2.09862075 41.28125 2.21875 C40.18276733 2.23006958 39.08428467 2.24138916 37.95251465 2.25305176 C34.46651954 2.29760241 30.9847377 2.39793252 27.5 2.5 C25.12766384 2.5401542 22.75526279 2.57665155 20.3828125 2.609375 C14.5871201 2.69726686 8.79386106 2.83088936 3 3 C5.662342 5.69181275 8.33066667 8.37762147 11 11.0625 C11.74378906 11.81466797 12.48757812 12.56683594 13.25390625 13.34179688 C17.44743542 17.55355878 21.72680675 21.57965725 26.23144531 25.45629883 C28.54821747 27.47851727 30.71783527 29.6217462 32.875 31.8125 C33.71546875 32.66070312 34.5559375 33.50890625 35.421875 34.3828125 C37.140625 36.12760417 38.859375 37.87239583 40.578125 39.6171875 C45.00840079 44.0882327 49.46553925 48.40560464 54.30859375 52.4296875 C56.14503742 54.13465368 57.55479379 55.95814902 59 58 C54.63733979 57.55754215 52.30687464 54.67189331 49.421875 51.6796875 C48.89160706 51.14280304 48.36133911 50.60591858 47.81500244 50.05276489 C46.11941349 48.33380332 44.43426808 46.60504933 42.75 44.875 C40.54032077 42.61857879 38.32628139 40.36650752 36.109375 38.1171875 C35.57245529 37.57154144 35.03553558 37.02589539 34.48234558 36.4637146 C31.09087305 33.03832701 27.59245229 29.81638852 23.91748047 26.69482422 C19.11748817 22.45220306 14.73907521 17.731306 10.27148438 13.14453125 C9.50513672 12.36722656 8.73878906 11.58992187 7.94921875 10.7890625 C7.26174561 10.08475098 6.57427246 9.38043945 5.8659668 8.65478516 C4.00001627 6.78175098 4.00001627 6.78175098 1 6 C0.67 4.02 0.34 2.04 0 0 Z " fill="#171717" transform="translate(196,130)"/>
<path d="M0 0 C17.16 0 34.32 0 52 0 C52 0.33 52 0.66 52 1 C35.5 1 19 1 2 1 C3.65 2.65 5.3 4.3 7 6 C8.81941061 7.83033145 10.63839685 9.6610848 12.45703125 11.4921875 C14.0348401 13.07738211 15.61313633 14.66208966 17.19165039 16.24658203 C18.26775379 17.32771017 19.34295744 18.40973467 20.41723633 19.49267578 C25.82616701 24.94389612 31.24032958 30.31516033 37.0847168 35.30517578 C41.71384783 39.40146993 45.95748514 43.92262994 50.2890625 48.328125 C53.75612387 51.83092927 57.22804602 55.25763721 60.96875 58.46875 C66.60544631 63.31296029 71.72387138 68.67931072 76.93359375 73.97265625 C80.52936227 77.60339172 84.12146956 81.17057357 88 84.5 C93.62812757 89.33132386 98.73436598 94.68997378 103.93359375 99.97265625 C107.51906059 103.59298987 111.09941892 107.15107054 114.96875 110.46875 C120.8368736 115.50609239 126.15483362 121.11172504 131.578125 126.6171875 C135.90286143 130.98172212 140.27793634 135.17002421 144.94140625 139.16845703 C149.13998045 142.90395319 153.04745061 146.94548583 157 150.9375 C157.87011719 151.81212891 158.74023438 152.68675781 159.63671875 153.58789062 C161.76013549 155.72297449 163.88116378 157.86037205 166 160 C162.3716158 160 161.97316098 159.38511274 159.41796875 156.96484375 C158.73283203 156.31966797 158.04769531 155.67449219 157.34179688 155.00976562 C156.27541992 153.98399414 156.27541992 153.98399414 155.1875 152.9375 C154.48818359 152.28072266 153.78886719 151.62394531 153.06835938 150.94726562 C149.22927683 147.30211242 145.67461479 143.55012241 142.28051758 139.48950195 C140.73405183 137.69064828 139.06870631 136.14595351 137.25 134.625 C136.5796875 134.05265625 135.909375 133.4803125 135.21875 132.890625 C134.4865625 132.26671875 133.754375 131.6428125 133 131 C131.24351753 129.46572315 129.4936865 127.92380389 127.75 126.375 C126.94046875 125.66085937 126.1309375 124.94671875 125.296875 124.2109375 C123 122 123 122 120.890625 119.3515625 C119.04189667 116.81062111 119.04189667 116.81062111 116 115 C116 114.34 116 113.68 116 113 C115.41081787 112.73227783 114.82163574 112.46455566 114.21459961 112.1887207 C111.97333165 110.98568535 110.41031708 109.72212944 108.56640625 107.98046875 C107.92380859 107.37654297 107.28121094 106.77261719 106.61914062 106.15039062 C105.94044922 105.50263672 105.26175781 104.85488281 104.5625 104.1875 C103.85673828 103.52041016 103.15097656 102.85332031 102.42382812 102.16601562 C97.32076937 97.32017675 92.33081714 92.37007427 87.38427734 87.36523438 C83.99419187 83.9484889 80.50156927 80.73310236 76.83984375 77.61328125 C72.59127657 73.88789219 68.47345213 69.94875927 65.0625 65.4375 C62.36768877 62.25272309 59.19201495 59.9977399 55.828125 57.55078125 C55.22484375 57.03902344 54.6215625 56.52726562 54 56 C54 55.34 54 54.68 54 54 C53.443125 53.773125 52.88625 53.54625 52.3125 53.3125 C49.33840412 51.62449964 47.27991135 49.53323483 45 47 C45 46.34 45 45.68 45 45 C44.01 44.67 43.02 44.34 42 44 C40.640625 42.546875 40.640625 42.546875 39.25 40.75 C36.66247022 37.60387198 34.0079337 35.43452841 30.6484375 33.16796875 C28.1342792 31.38661014 26.12322724 29.2267993 24 27 C22.66753966 25.68661374 21.33413175 24.37418841 20 23.0625 C17.71743166 20.79263612 15.68368933 18.59819996 13.6875 16.0625 C10.52798014 12.0582474 6.27786115 9.1960117 2.23046875 6.1484375 C1.49441406 5.43945312 0.75835937 4.73046875 0 4 C0 2.68 0 1.36 0 0 Z " fill="#1C1C1C" transform="translate(63,133)"/>
<path d="M0 0 C8.78625 0.37125 8.78625 0.37125 17.75 0.75 C17.75 22.2 17.75 43.65 17.75 65.75 C17.42 65.75 17.09 65.75 16.75 65.75 C16.75 44.63 16.75 23.51 16.75 1.75 C-6.48391397 -0.594949 -6.48391397 -0.594949 -26.48203659 8.98477745 C-32.32064891 14.25510238 -37.58438717 20.08823899 -42.76269531 25.99676514 C-45.48905689 29.06712138 -48.31718096 32.0408479 -51.13671875 35.02539062 C-56.60863868 40.84631416 -61.96344408 46.7602354 -67.25 52.75 C-67.745 51.265 -67.745 51.265 -68.25 49.75 C-67.43595703 48.97076172 -67.43595703 48.97076172 -66.60546875 48.17578125 C-62.90539218 44.56903995 -59.72415516 41.32718704 -57.25 36.75 C-54.76520109 33.32269116 -52.12689943 30.77387184 -48.82421875 28.13671875 C-47.08882827 26.6080249 -45.6633117 24.96682053 -44.1875 23.1875 C-41.18792199 19.58644411 -38.09972188 16.72170404 -33.91699219 14.52441406 C-31.22196857 12.73135002 -29.53905056 10.76013764 -27.52386475 8.25567627 C-19.57414615 -1.2059025 -11.67815615 -0.70006984 0 0 Z " fill="#CCCCCC" transform="translate(385.25,110.25)"/>
<path d="M0 0 C0.33 0 0.66 0 1 0 C0.98810135 0.62481262 0.9762027 1.24962524 0.96394348 1.89337158 C0.85010583 8.44872435 0.81468674 15.0013065 0.82299805 21.55761719 C0.81606005 23.99785748 0.78971288 26.43812821 0.74291992 28.87792969 C-0.16988039 44.28632043 -0.16988039 44.28632043 5.79240417 57.8427124 C8.05086924 60.07825323 10.51226488 62.02663404 13 64 C14.58588873 65.83774809 16.13473322 67.708893 17.625 69.625 C21.22542899 74.09650053 24.98020165 78.38210883 28.859375 82.61328125 C31.3108439 85.3465796 33.6495013 88.17940157 36 91 C36.33 77.8 36.66 64.6 37 51 C44.875 57.75 44.875 57.75 47.4375 60.875 C48.17806641 61.76832031 48.17806641 61.76832031 48.93359375 62.6796875 C49.28550781 63.11539063 49.63742188 63.55109375 50 64 C46.34683329 62.75023244 45.21934164 62.32901247 43 59 C42.01 59 41.02 59 40 59 C39.67 70.55 39.34 82.1 39 94 C36 94 36 94 33 93 C31.5703125 91.109375 31.5703125 91.109375 30.125 88.75 C27.71854258 85.00204553 25.23526771 82.08479014 22 79 C15.6933937 72.24909266 9.7843339 65.20000261 4 58 C2.91138672 56.69482422 2.91138672 56.69482422 1.80078125 55.36328125 C-0.80339861 51.94564825 -1.12554127 49.34632555 -1.12939453 45.17724609 C-1.13254669 44.19968353 -1.13569885 43.22212097 -1.13894653 42.2149353 C-1.1369223 41.16174103 -1.13489807 40.10854675 -1.1328125 39.0234375 C-1.13376923 37.94244781 -1.13472595 36.86145813 -1.13571167 35.74771118 C-1.1363923 33.46299176 -1.13454614 31.1782704 -1.13037109 28.89355469 C-1.12501087 25.38211771 -1.13032538 21.87080804 -1.13671875 18.359375 C-1.13605815 16.14322888 -1.13477737 13.92708284 -1.1328125 11.7109375 C-1.13483673 10.65369476 -1.13686096 9.59645203 -1.13894653 8.50717163 C-1.13579437 7.53591339 -1.13264221 6.56465515 -1.12939453 5.56396484 C-1.12859894 4.70475433 -1.12780334 3.84554382 -1.12698364 2.96029663 C-1 1 -1 1 0 0 Z " fill="#131313" transform="translate(143,266)"/>
<path d="M0 0 C0.83920486 0.00424484 1.67840973 0.00848969 2.54304504 0.01286316 C5.2230337 0.02965411 7.90226995 0.06730645 10.58203125 0.10546875 C12.39907768 0.12051508 14.2161359 0.13420357 16.03320312 0.14648438 C20.48726901 0.17955893 24.94077257 0.23134362 29.39453125 0.29296875 C30.81150318 3.12691262 30.51399054 5.50170613 30.50805664 8.67041016 C30.50820267 9.32419144 30.50834869 9.97797272 30.50849915 10.65156555 C30.50780161 12.81592102 30.50001665 14.98019079 30.4921875 17.14453125 C30.49032276 18.64382887 30.48889912 20.14312709 30.48789978 21.64242554 C30.48407904 25.59128497 30.47425253 29.54010771 30.4631958 33.48895264 C30.45297216 37.51736962 30.44840012 41.54579253 30.44335938 45.57421875 C30.43262987 53.4804856 30.41555875 61.38672261 30.39453125 69.29296875 C29.73453125 69.29296875 29.07453125 69.29296875 28.39453125 69.29296875 C28.39453125 47.18296875 28.39453125 25.07296875 28.39453125 2.29296875 C5.03418713 0.10922217 5.03418713 0.10922217 -16.21435547 8.37060547 C-18.66453418 11.22528488 -20.71101036 14.03752473 -22.60546875 17.29296875 C-22.60546875 13.11594807 -20.37561972 11.15690087 -17.60546875 8.29296875 C-15.65586422 6.55294671 -13.64348711 4.93224439 -11.60546875 3.29296875 C-11.13014206 2.75729782 -10.65481537 2.22162689 -10.16508484 1.66972351 C-7.37328487 -0.79474446 -3.54567967 -0.0673035 0 0 Z " fill="#101010" transform="translate(374.60546875,108.70703125)"/>
<path d="M0 0 C0.66 0 1.32 0 2 0 C3.625 2.5 3.625 2.5 5 5 C4.34 5 3.68 5 3 5 C3 21.5 3 38 3 55 C1.68 55.66 0.36 56.32 -1 57 C-5.48717034 53.13635705 -9.87675353 49.25209792 -14 45 C-13.67 44.34 -13.34 43.68 -13 43 C-12.48050781 43.45890625 -11.96101562 43.9178125 -11.42578125 44.390625 C-10.72839844 45.00421875 -10.03101563 45.6178125 -9.3125 46.25 C-8.62800781 46.85328125 -7.94351563 47.4565625 -7.23828125 48.078125 C-4.87315524 50.10891383 -2.43424806 52.05260155 0 54 C0 36.18 0 18.36 0 0 Z " fill="#060606" transform="translate(248,256)"/>
<path d="M0 0 C4.32146763 3.6912536 8.62808991 7.39754528 12.89453125 11.15234375 C14.34311677 12.42355145 15.79931821 13.68611597 17.26171875 14.94140625 C20.85940929 18.06266239 24.24458658 21.16376801 27.3125 24.8125 C32.88015378 31.39481966 39.50373117 37.15950672 46.171875 42.6015625 C48.46954981 44.55014307 50.30651691 46.3627461 52.1875 48.6875 C55.96794094 53.16456152 60.30264905 56.9047188 64.7421875 60.703125 C66.92244675 62.921105 67.79647995 63.93363129 68 67 C67 68 67 68 65.15234375 68.09765625 C63.1015625 68.06510417 61.05078125 68.03255208 59 68 C59 67.67 59 67.34 59 67 C61.31 67 63.62 67 66 67 C66 66.01 66 65.02 66 64 C65.40703125 63.73574219 64.8140625 63.47148437 64.203125 63.19921875 C61.91970946 61.95629575 60.52573277 60.69598354 58.75 58.8125 C56.39396144 56.32233053 53.92593316 54.05578488 51.328125 51.82421875 C45.8374647 47.05758069 40.80555022 41.85342651 35.7109375 36.671875 C32.27359109 33.19909202 28.8342946 29.79611665 25.125 26.61328125 C20.34119168 22.49982305 15.88362525 18.06970136 11.42431641 13.60961914 C9.97965004 12.16718144 8.52710146 10.73298435 7.07421875 9.29882812 C6.16285156 8.38939453 5.25148437 7.47996094 4.3125 6.54296875 C3.48363281 5.71821045 2.65476563 4.89345215 1.80078125 4.04370117 C0 2 0 2 0 0 Z " fill="#161616" transform="translate(241,324)"/>
<path d="M0 0 C17.16 0.33 34.32 0.66 52 1 C52 1.33 52 1.66 52 2 C35.83 2.33 19.66 2.66 3 3 C15.23736997 15.28072167 15.23736997 15.28072167 28 27 C29.64501582 28.58363463 31.27290431 30.18545818 32.875 31.8125 C33.71546875 32.66070312 34.5559375 33.50890625 35.421875 34.3828125 C37.140625 36.12760417 38.859375 37.87239583 40.578125 39.6171875 C45.00840079 44.0882327 49.46553925 48.40560464 54.30859375 52.4296875 C56.14503742 54.13465368 57.55479379 55.95814902 59 58 C54.63733979 57.55754215 52.30687464 54.67189331 49.421875 51.6796875 C48.89160706 51.14280304 48.36133911 50.60591858 47.81500244 50.05276489 C46.11941349 48.33380332 44.43426808 46.60504933 42.75 44.875 C40.54032077 42.61857879 38.32628139 40.36650752 36.109375 38.1171875 C35.57245529 37.57154144 35.03553558 37.02589539 34.48234558 36.4637146 C31.09087305 33.03832701 27.59245229 29.81638852 23.91748047 26.69482422 C19.11748817 22.45220306 14.73907521 17.731306 10.27148438 13.14453125 C9.50513672 12.36722656 8.73878906 11.58992187 7.94921875 10.7890625 C7.26174561 10.08475098 6.57427246 9.38043945 5.8659668 8.65478516 C4.00001627 6.78175098 4.00001627 6.78175098 1 6 C0.67 4.02 0.34 2.04 0 0 Z " fill="#353535" transform="translate(196,130)"/>
<path d="M0 0 C0.66 0.33 1.32 0.66 2 1 C1.41089844 1.53109375 0.82179688 2.0621875 0.21484375 2.609375 C-0.53667969 3.31578125 -1.28820312 4.0221875 -2.0625 4.75 C-2.81660156 5.44609375 -3.57070313 6.1421875 -4.34765625 6.859375 C-6.21143853 8.790837 -6.21143853 8.790837 -5.89648438 10.82226562 C-4.63090361 13.89660669 -2.67620762 15.65929312 -0.30859375 17.984375 C0.15610825 18.44483215 0.62081024 18.90528931 1.09959412 19.37969971 C2.58031819 20.84367811 4.07114519 22.29686041 5.5625 23.75 C6.57034664 24.74279449 7.57751633 25.7362767 8.58398438 26.73046875 C11.04819461 29.16166473 13.52157329 31.58328868 16 34 C19.60103947 32.30606494 22.08985427 30.23269782 25 27.5 C27.87483871 24.80045633 30.35411542 22.55287677 34 21 C31.20535936 25.77417776 27.97354612 28.96984327 23.70703125 32.484375 C21.89146452 33.90713898 21.89146452 33.90713898 21 36 C18.1875 36.875 18.1875 36.875 15 37 C12.625 35.1875 12.625 35.1875 11 33 C11 32.34 11 31.68 11 31 C10.01 30.67 9.02 30.34 8 30 C6.52734375 28.43359375 6.52734375 28.43359375 4.9375 26.4375 C1.41743038 22.21492722 -2.55680109 19.18111877 -7.05859375 16.0546875 C-9 14 -9 14 -9.56640625 11.03125 C-8.8418741 7.15375382 -7.53783545 6.07214522 -4.5 3.625 C-3.6646875 2.93664062 -2.829375 2.24828125 -1.96875 1.5390625 C-1.3190625 1.03117188 -0.669375 0.52328125 0 0 Z " fill="#232323" transform="translate(324,151)"/>
<path d="M0 0 C7.45634335 -0.10144294 14.91250866 -0.17148385 22.36938477 -0.21972656 C24.90591075 -0.23983841 27.4423904 -0.26713161 29.97875977 -0.30175781 C33.62527911 -0.35029242 37.27118528 -0.37297363 40.91796875 -0.390625 C42.61822456 -0.42159271 42.61822456 -0.42159271 44.35282898 -0.45318604 C52.24754271 -0.45543468 52.24754271 -0.45543468 56.10791016 1.88110352 C56.7322998 2.58033936 57.35668945 3.2795752 58 4 C59.16595703 5.13501953 59.16595703 5.13501953 60.35546875 6.29296875 C61.66451172 7.63294922 61.66451172 7.63294922 63 9 C64.18223914 10.18494681 65.36593403 11.3684423 66.55078125 12.55078125 C70.03385417 16.03385417 73.51692708 19.51692708 77 23 C76.505 24.485 76.505 24.485 76 26 C75.5452832 25.27296875 75.09056641 24.5459375 74.62207031 23.796875 C68.32019203 14.40277073 60.58213708 3.97321135 49.01196289 1.31298828 C32.8969319 -0.91536448 16.1389977 0.56206519 0 2 C0 1.34 0 0.68 0 0 Z " fill="#434343" transform="translate(65,134)"/>
<path d="M0 0 C7.875 6.75 7.875 6.75 10.4375 9.875 C10.93121094 10.47054688 11.42492187 11.06609375 11.93359375 11.6796875 C12.28550781 12.11539062 12.63742188 12.55109375 13 13 C9.34683329 11.75023244 8.21934164 11.32901247 6 8 C5.01 8 4.02 8 3 8 C2.67 19.55 2.34 31.1 2 43 C1.01 43 0.02 43 -1 43 C-0.67 28.81 -0.34 14.62 0 0 Z " fill="#131313" transform="translate(180,317)"/>
<path d="M0 0 C5.92455015 4.15979053 10.99129675 8.78531111 16 14 C19.31689975 17.39779975 22.7391458 20.52725155 26.3671875 23.58203125 C28 25 28 25 30.1875 27.25 C32.02402063 29.02319233 33.66608272 29.99974974 36 31 C36 32.32 36 33.64 36 35 C32.993182 33.66000502 31.00237391 32.20154709 28.75 29.8125 C26.39303464 27.32135097 23.92373749 25.04893271 21.328125 22.8125 C16.69642417 18.78947276 12.33863976 14.52238011 8 10.1875 C7.22527344 9.42501953 6.45054687 8.66253906 5.65234375 7.87695312 C4.92144531 7.14798828 4.19054687 6.41902344 3.4375 5.66796875 C2.77621094 5.01078857 2.11492187 4.3536084 1.43359375 3.67651367 C0 2 0 2 0 0 Z " fill="#131313" transform="translate(195,209)"/>
<path d="M0 0 C0.33 0 0.66 0 1 0 C1 16.83 1 33.66 1 51 C-3.91684926 49.0332603 -5.7469755 47.58314548 -9.3125 43.875 C-10.19550781 42.96492188 -11.07851562 42.05484375 -11.98828125 41.1171875 C-12.65214844 40.41851562 -13.31601563 39.71984375 -14 39 C-13.67 38.34 -13.34 37.68 -13 37 C-12.48050781 37.45890625 -11.96101562 37.9178125 -11.42578125 38.390625 C-10.72839844 39.00421875 -10.03101563 39.6178125 -9.3125 40.25 C-8.62800781 40.85328125 -7.94351563 41.4565625 -7.23828125 42.078125 C-4.87315524 44.10891383 -2.43424806 46.05260155 0 48 C0 32.16 0 16.32 0 0 Z " fill="#BEBEBE" transform="translate(248,262)"/>
<path d="M0 0 C3.95297197 2.16298857 6.87003165 4.64708369 10.01953125 7.859375 C10.71292854 8.56057465 10.71292854 8.56057465 11.42033386 9.27593994 C12.88927922 10.76256853 14.35134387 12.2557182 15.8125 13.75 C24.33540283 22.44923271 24.33540283 22.44923271 33.39916992 30.57739258 C35.56265881 32.50001721 37.30134993 34.66435616 39 37 C36.13918128 35.69240848 33.99351719 34.27482258 31.70703125 32.12109375 C31.0845752 31.53730957 30.46211914 30.95352539 29.82080078 30.35205078 C29.15806152 29.72024902 28.49532227 29.08844727 27.8125 28.4375 C27.12140137 27.78507324 26.43030273 27.13264648 25.71826172 26.46044922 C19.49597995 20.55102741 13.42709135 14.48993583 7.40942383 8.37280273 C6.73032959 7.68516846 6.05123535 6.99753418 5.3515625 6.2890625 C4.75166504 5.67756348 4.15176758 5.06606445 3.53369141 4.43603516 C2.04116411 2.90188315 2.04116411 2.90188315 0 2 C0 1.34 0 0.68 0 0 Z " fill="#242424" transform="translate(306,312)"/>
<path d="M0 0 C17.16 0 34.32 0 52 0 C52 0.33 52 0.66 52 1 C35.5 1 19 1 2 1 C3.65 2.65 5.3 4.3 7 6 C7.8125 8.3125 7.8125 8.3125 8 10 C6.65555841 9.09970429 5.32468562 8.17911978 4 7.25 C3.2575 6.73953125 2.515 6.2290625 1.75 5.703125 C1.1725 5.14109375 0.595 4.5790625 0 4 C0 2.68 0 1.36 0 0 Z " fill="#121212" transform="translate(63,133)"/>
<path d="M0 0 C6.08706212 4.27036491 11.31190533 9.06200675 16.5 14.375 C17.22703125 15.11105469 17.9540625 15.84710938 18.703125 16.60546875 C20.47346856 18.3991063 22.23892503 20.19726933 24 22 C23.67 22.66 23.34 23.32 23 24 C17.405697 19.31905259 12.17931788 14.31800819 7 9.1875 C6.31671631 8.51710693 5.63343262 7.84671387 4.92944336 7.15600586 C4.29272705 6.52057861 3.65601074 5.88515137 3 5.23046875 C2.4225 4.65707764 1.845 4.08368652 1.25 3.49291992 C0 2 0 2 0 0 Z " fill="#131313" transform="translate(405,355)"/>
<path d="M0 0 C3.59107159 0.57749119 5.23412373 1.87780324 7.75 4.45703125 C8.4409375 5.15763672 9.131875 5.85824219 9.84375 6.58007812 C10.5553125 7.31677734 11.266875 8.05347656 12 8.8125 C12.7115625 9.53759766 13.423125 10.26269531 14.15625 11.00976562 C15.4878495 12.36745056 16.81633671 13.72820032 18.140625 15.09301758 C20.07709173 17.07906559 22.03493936 19.04227573 24 21 C23.67 21.66 23.34 22.32 23 23 C22.5875 22.57589844 22.175 22.15179688 21.75 21.71484375 C18.61944093 18.5353697 15.44726915 15.47139071 12.0625 12.5625 C7.84224156 8.92035915 3.76982114 5.11070922 0 1 C0 0.67 0 0.34 0 0 Z " fill="#151515" transform="translate(154,223)"/>
<path d="M0 0 C3.85476229 1.61298564 6.51633852 4.11513814 9.5625 6.9375 C10.51253906 7.81277344 11.46257812 8.68804687 12.44140625 9.58984375 C18.79225749 15.57224866 18.79225749 15.57224866 19 19 C17.5625 21.25 17.5625 21.25 16 23 C15.01 22.67 14.02 22.34 13 22 C13.99 21.01 14.98 20.02 16 19 C14.64361505 15.95748968 13.12719349 13.89732168 10.7421875 11.58203125 C10.11699219 10.96779297 9.49179687 10.35355469 8.84765625 9.72070312 C8.19667969 9.09099609 7.54570312 8.46128906 6.875 7.8125 C5.57860552 6.55035469 4.28421518 5.28614638 2.9921875 4.01953125 C2.41839355 3.46370361 1.84459961 2.90787598 1.25341797 2.33520508 C0 1 0 1 0 0 Z " fill="#141414" transform="translate(399,276)"/>
<path d="M0 0 C0.66 0.33 1.32 0.66 2 1 C-0.98375004 5.1026563 -4.42785718 8.2151458 -8.29296875 11.44921875 C-10.10394589 12.90679775 -10.10394589 12.90679775 -11 15 C-13.8125 15.875 -13.8125 15.875 -17 16 C-19.375 14.1875 -19.375 14.1875 -21 12 C-21 11.34 -21 10.68 -21 10 C-21.66 10 -22.32 10 -23 10 C-22.67 9.01 -22.34 8.02 -22 7 C-20.02 8.98 -18.04 10.96 -16 13 C-12.34584258 11.43636055 -9.7880312 9.17824958 -6.875 6.5 C-5.57175781 5.30890625 -5.57175781 5.30890625 -4.2421875 4.09375 C-2.80591578 2.75256247 -1.38954317 1.38954317 0 0 Z " fill="#202020" transform="translate(356,172)"/>
<path d="M0 0 C0.66 0.33 1.32 0.66 2 1 C-5.92 8.92 -13.84 16.84 -22 25 C-22 20.82580611 -19.77300109 18.86033971 -17 16 C-16.030625 15.195625 -15.06125 14.39125 -14.0625 13.5625 C-11.12608494 11.10549965 -8.88239843 8.57935615 -6.45703125 5.6484375 C-4.5249427 3.46253571 -2.34513847 1.72436652 0 0 Z " fill="#0D0D0D" transform="translate(349,126)"/>
<path d="M0 0 C3.90851199 1.58431453 6.52367356 4.26635095 9.421875 7.2265625 C9.92672424 7.73424164 10.43157349 8.24192078 10.95172119 8.76498413 C12.55592096 10.38033842 14.15300856 12.00252209 15.75 13.625 C16.83938107 14.72441698 17.9292199 15.82338059 19.01953125 16.921875 C21.68501885 19.6093602 24.34415143 22.30299021 27 25 C24 25 24 25 21.88696289 23.21166992 C21.0902417 22.39287354 20.29352051 21.57407715 19.47265625 20.73046875 C18.16071289 19.39725586 18.16071289 19.39725586 16.82226562 18.03710938 C15.91154297 17.09673828 15.00082031 16.15636719 14.0625 15.1875 C12.26394339 13.34548147 10.46324374 11.50555239 8.66015625 9.66796875 C7.86230713 8.84578857 7.06445801 8.0236084 6.24243164 7.17651367 C4.08232773 4.97748928 4.08232773 4.97748928 1.70874023 3.33325195 C1.14485596 2.89327881 0.58097168 2.45330566 0 2 C0 1.34 0 0.68 0 0 Z " fill="#181818" transform="translate(253,261)"/>
<path d="M0 0 C4.06109472 1.35473875 6.44232942 3.08496962 9.42578125 6.1328125 C10.22177734 6.93847656 11.01777344 7.74414062 11.83789062 8.57421875 C12.65451172 9.41597656 13.47113281 10.25773437 14.3125 11.125 C15.14845703 11.97449219 15.98441406 12.82398438 16.84570312 13.69921875 C18.9040695 15.79287141 20.95509803 17.89320824 23 20 C20 20 20 20 18.0625 18.3203125 C17.0415625 17.23363281 17.0415625 17.23363281 16 16.125 C13.704576 13.69915419 11.79749856 11.86499904 9 10 C9 9.34 9 8.68 9 8 C8.443125 7.7525 7.88625 7.505 7.3125 7.25 C4.57589087 5.77075182 2.32349131 4.06532561 0 2 C0 1.34 0 0.68 0 0 Z " fill="#272727" transform="translate(192,330)"/>
<path d="M0 0 C3.81684226 1.55500981 6.19195732 4.03595495 9 7 C12.17724403 6.24988609 12.17724403 6.24988609 13.9375 3.5 C16.04586025 0.94441182 16.7991535 0.34294784 20 0 C18.42705864 3.86085606 16.28856993 6.44222339 13 9 C8.48902014 9.16110642 6.61067258 8.50446865 3.125 5.625 C1 3 1 3 0 0 Z " fill="#181818" transform="translate(393,396)"/>
<path d="M0 0 C3.2586636 1.4264578 5.4024854 3.16704162 7.890625 5.6953125 C8.95410156 6.76845703 8.95410156 6.76845703 10.0390625 7.86328125 C11.13347656 8.98283203 11.13347656 8.98283203 12.25 10.125 C12.99507812 10.87910156 13.74015625 11.63320313 14.5078125 12.41015625 C16.3431342 14.26900772 18.1736191 16.13237005 20 18 C16.31935646 18 15.85559344 17.28074238 13.2421875 14.82421875 C12.53449219 14.16099609 11.82679688 13.49777344 11.09765625 12.81445312 C10.36417969 12.11255859 9.63070312 11.41066406 8.875 10.6875 C7.76318359 9.65206055 7.76318359 9.65206055 6.62890625 8.59570312 C1.13163385 3.39490154 1.13163385 3.39490154 0 0 Z " fill="#161616" transform="translate(209,275)"/>
<path d="M0 0 C4.32504836 1.65863505 7.09418825 4.871041 10.25 8.125 C11.08144531 8.96998047 11.08144531 8.96998047 11.9296875 9.83203125 C13.29104485 11.21686028 14.64614859 12.60783204 16 14 C15.67 14.99 15.34 15.98 15 17 C12.49195282 14.54976242 9.9949924 12.08852402 7.5 9.625 C6.78457031 8.92632812 6.06914062 8.22765625 5.33203125 7.5078125 C4.65527344 6.8375 3.97851562 6.1671875 3.28125 5.4765625 C2.65283203 4.85861816 2.02441406 4.24067383 1.37695312 3.60400391 C0 2 0 2 0 0 Z " fill="#232323" transform="translate(225,309)"/>
<path d="M0 0 C4.45978075 -0.40148064 4.45978075 -0.40148064 6.8527832 1.37695312 C7.41312256 2.00537109 7.97346191 2.63378906 8.55078125 3.28125 C9.16630859 3.95800781 9.78183594 4.63476562 10.41601562 5.33203125 C11.04185547 6.04746094 11.66769531 6.76289063 12.3125 7.5 C13.28026367 8.57314453 13.28026367 8.57314453 14.26757812 9.66796875 C15.85764448 11.43470915 17.43410174 13.21185135 19 15 C18.67 15.66 18.34 16.32 18 17 C17.00419922 15.98679688 17.00419922 15.98679688 15.98828125 14.953125 C15.10527344 14.06109375 14.22226563 13.1690625 13.3125 12.25 C12.44238281 11.36828125 11.57226562 10.4865625 10.67578125 9.578125 C8.05815616 6.9653261 8.05815616 6.9653261 5.16796875 4.796875 C4.45253906 4.20390625 3.73710937 3.6109375 3 3 C3 2.34 3 1.68 3 1 C2.01 1.33 1.02 1.66 0 2 C0 1.34 0 0.68 0 0 Z " fill="#181818" transform="translate(231,190)"/>
<path d="M0 0 C14.8477938 10.42504671 14.8477938 10.42504671 16.72265625 16.2421875 C16.81417969 16.82226562 16.90570313 17.40234375 17 18 C11.00040771 13.04381506 5.19144551 7.80773381 0 2 C0 1.34 0 0.68 0 0 Z " fill="#101010" transform="translate(195,209)"/>
<path d="M0 0 C10.81251603 7.49192101 10.81251603 7.49192101 14 13 C13.67 13.99 13.34 14.98 13 16 C10.36 16 7.72 16 5 16 C5 15.67 5 15.34 5 15 C7.31 15 9.62 15 12 15 C12 14.01 12 13.02 12 12 C11.42765625 11.7525 10.8553125 11.505 10.265625 11.25 C7.64989389 9.80683801 5.85226544 8.11783778 3.75 6 C3.04359375 5.29875 2.3371875 4.5975 1.609375 3.875 C0 2 0 2 0 0 Z " fill="#0A0A0A" transform="translate(295,376)"/>
<path d="M0 0 C3.90285767 1.58667578 6.33520982 4.13350481 9.25 7.125 C10.14203125 8.03507813 11.0340625 8.94515625 11.953125 9.8828125 C12.62859375 10.58148438 13.3040625 11.28015625 14 12 C13.67 12.99 13.34 13.98 13 15 C10.82722286 12.88094537 8.66173092 10.75527122 6.5 8.625 C5.87996094 8.02171875 5.25992187 7.4184375 4.62109375 6.796875 C4.03457031 6.21679688 3.44804687 5.63671875 2.84375 5.0390625 C2.29912109 4.50490723 1.75449219 3.97075195 1.19335938 3.42041016 C0 2 0 2 0 0 Z " fill="#272727" transform="translate(304,184)"/>
<path d="M0 0 C4.09125955 2.21886329 7.07157732 4.86015272 10.3125 8.1875 C11.19550781 9.08855469 12.07851562 9.98960937 12.98828125 10.91796875 C13.98408203 11.94857422 13.98408203 11.94857422 15 13 C14.01 13.495 14.01 13.495 13 14 C3.4655115 5.7904032 3.4655115 5.7904032 0 2 C0 1.34 0 0.68 0 0 Z " fill="#1E1E1E" transform="translate(234,299)"/>
<path d="M0 0 C3.39465355 1.45810622 5.52251713 3.33766728 8.0625 6 C10.33653856 8.37442798 12.24521929 10.16347952 15 12 C14.67 12.99 14.34 13.98 14 15 C11.65864102 12.88370326 9.32835941 10.75558371 7 8.625 C6.33226562 8.02171875 5.66453125 7.4184375 4.9765625 6.796875 C4.34492188 6.21679688 3.71328125 5.63671875 3.0625 5.0390625 C2.47597656 4.50490723 1.88945312 3.97075195 1.28515625 3.42041016 C0 2 0 2 0 0 Z " fill="#111111" transform="translate(239,375)"/>
<path d="M0 0 C3.84659015 1.57076535 6.20270385 4.0323684 9.0625 7 C11.65493955 9.68210288 13.89183762 11.92789175 17 14 C16.67 14.99 16.34 15.98 16 17 C7.89453125 8.89453125 7.89453125 8.89453125 6.44384766 7.43994141 C5.47474228 6.47345789 4.50036129 5.51223782 3.52099609 4.55615234 C2.32975009 3.38843712 1.16241617 2.19641737 0 1 C0 0.67 0 0.34 0 0 Z " fill="#161616" transform="translate(344,349)"/>
<path d="M0 0 C3.45201639 1.47721422 5.64961936 3.43794001 8.25 6.125 C8.95640625 6.84945313 9.6628125 7.57390625 10.390625 8.3203125 C11.18726563 9.15175781 11.18726563 9.15175781 12 10 C11.01 10.495 11.01 10.495 10 11 C9.278125 10.175 8.55625 9.35 7.8125 8.5 C5.27082634 5.75592194 5.27082634 5.75592194 2.1875 5.6875 C1.465625 5.790625 0.74375 5.89375 0 6 C0 4.02 0 2.04 0 0 Z " fill="#101010" transform="translate(181,319)"/>
<path d="M0 0 C0.33 0.99 0.66 1.98 1 3 C-2.3 6.3 -5.6 9.6 -9 13 C-9.99 12.67 -10.98 12.34 -12 12 C-8.04 8.04 -4.08 4.08 0 0 Z " fill="#3E3E3E" transform="translate(368,159)"/>
<path d="M0 0 C3.45201639 1.47721422 5.64961936 3.43794001 8.25 6.125 C8.95640625 6.84945312 9.6628125 7.57390625 10.390625 8.3203125 C11.18726563 9.15175781 11.18726563 9.15175781 12 10 C11.67 10.99 11.34 11.98 11 13 C9.16052663 11.21427748 7.32842259 9.42197551 5.5 7.625 C4.71302734 6.86316406 4.71302734 6.86316406 3.91015625 6.0859375 C2.56846819 4.76167396 1.28004185 3.38394135 0 2 C0 1.34 0 0.68 0 0 Z " fill="#242424" transform="translate(250,132)"/>
<path d="M0 0 C0.99 0.33 1.98 0.66 3 1 C-1.95 5.95 -6.9 10.9 -12 16 C-12 11.82596056 -9.77291894 9.85912368 -7 7 C-5.93232324 6.06514427 -4.84928065 5.14748033 -3.75 4.25 C-0.97640062 2.29368116 -0.97640062 2.29368116 0 0 Z " fill="#0F0F0F" transform="translate(364,110)"/>
<path d="M0 0 C5.03163018 4.29785078 10.02718443 8.63425542 15 13 C14.01 13.33 13.02 13.66 12 14 C9.99387601 12.04761147 7.99507567 10.08862178 6 8.125 C5.42765625 7.56941406 4.8553125 7.01382812 4.265625 6.44140625 C2.80549218 4.99865596 1.39850702 3.5025626 0 2 C0 1.34 0 0.68 0 0 Z " fill="#141414" transform="translate(351,303)"/>
<path d="M0 0 C3.68069887 1.53643852 5.98775204 3.78150945 8.75 6.625 C9.54921875 7.44226563 10.3484375 8.25953125 11.171875 9.1015625 C12.07679687 10.04128906 12.07679687 10.04128906 13 11 C12.01 11.33 11.02 11.66 10 12 C8.82737096 10.88121617 7.66204862 9.75476949 6.5 8.625 C5.8503125 7.99851563 5.200625 7.37203125 4.53125 6.7265625 C3 5 3 5 3 3 C2.01 2.67 1.02 2.34 0 2 C0 1.34 0 0.68 0 0 Z " fill="#141414" transform="translate(105,175)"/>
<path d="M0 0 C3.66786393 1.50349377 5.68910393 3.63728792 8.25 6.625 C8.95640625 7.44226563 9.6628125 8.25953125 10.390625 9.1015625 C10.92171875 9.72804688 11.4528125 10.35453125 12 11 C10.68 11.33 9.36 11.66 8 12 C7.59007812 11.36191406 7.18015625 10.72382813 6.7578125 10.06640625 C6.21898437 9.24011719 5.68015625 8.41382813 5.125 7.5625 C4.32449219 6.32693359 4.32449219 6.32693359 3.5078125 5.06640625 C2.16165694 2.88961129 2.16165694 2.88961129 0 2 C0 1.34 0 0.68 0 0 Z " fill="#141414" transform="translate(168,347)"/>
<path d="M0 0 C3.8224465 0.53884708 5.23524018 2.05227864 7.625 5 C9.94555299 7.95572315 9.94555299 7.95572315 13 10 C12.67 10.99 12.34 11.98 12 13 C9.99698146 11.0238076 7.99750133 9.04425526 6 7.0625 C5.42765625 6.49853516 4.8553125 5.93457031 4.265625 5.35351562 C2.82474495 3.92121224 1.41012857 2.46258871 0 1 C0 0.67 0 0.34 0 0 Z " fill="#242424" transform="translate(364,317)"/>
<path d="M0 0 C4.29718953 1.38914475 6.70687757 3.38031985 9.8125 6.625 C10.99779297 7.85089844 10.99779297 7.85089844 12.20703125 9.1015625 C12.79871094 9.72804687 13.39039063 10.35453125 14 11 C9.85326976 11 8.47050281 9.24222063 5.3125 6.625 C4.31863281 5.81289062 3.32476562 5.00078125 2.30078125 4.1640625 C1.54152344 3.44992188 0.78226562 2.73578125 0 2 C0 1.34 0 0.68 0 0 Z " fill="#242424" transform="translate(117,187)"/>
<path d="M0 0 C3.40414403 1.13471468 4.24276648 2.17225987 6.5 4.875 C8.58578225 7.35415347 10.67301287 9.7439576 13 12 C12.67 12.66 12.34 13.32 12 14 C11.38511719 13.37351563 10.77023437 12.74703125 10.13671875 12.1015625 C9.32847656 11.28429687 8.52023437 10.46703125 7.6875 9.625 C6.88699219 8.81289062 6.08648437 8.00078125 5.26171875 7.1640625 C2.99990063 4.87395158 2.99990063 4.87395158 0 3 C0 2.01 0 1.02 0 0 Z " fill="#171717" transform="translate(262,143)"/>
<path d="M0 0 C3.78717347 1.48781815 5.77407001 3.61988409 8 7 C7.67 7.99 7.34 8.98 7 10 C5.82438854 8.90536178 4.6597511 7.79892814 3.5 6.6875 C2.52546875 5.76517578 2.52546875 5.76517578 1.53125 4.82421875 C0 3 0 3 0 0 Z " fill="#272727" transform="translate(261,343)"/>
<path d="M0 0 C4.52615993 3.67832017 8.39424999 7.41086363 12 12 C7.44156748 9.97402999 3.18733996 6.8583589 0 3 C0 2.01 0 1.02 0 0 Z " fill="#242424" transform="translate(228,363)"/>
<path d="M0 0 C0.67095703 0.58007812 0.67095703 0.58007812 1.35546875 1.171875 C4.8521026 4.18390075 8.37407463 7.14321031 12 10 C11.67 10.99 11.34 11.98 11 13 C9.16052663 11.21427748 7.32842259 9.42197551 5.5 7.625 C4.71302734 6.86316406 4.71302734 6.86316406 3.91015625 6.0859375 C2.56846819 4.76167396 1.28004185 3.38394135 0 2 C0 1.34 0 0.68 0 0 Z " fill="#101010" transform="translate(292,172)"/>
<path d="M0 0 C0.66 0.33 1.32 0.66 2 1 C1.43410156 1.54269531 0.86820312 2.08539063 0.28515625 2.64453125 C-0.44832031 3.35996094 -1.18179687 4.07539063 -1.9375 4.8125 C-2.66839844 5.52019531 -3.39929688 6.22789062 -4.15234375 6.95703125 C-6.20834646 8.95536163 -6.20834646 8.95536163 -7 12 C-7.66 12 -8.32 12 -9 12 C-8.52379711 7.62346871 -7.33100111 5.93461995 -3.9375 3.1875 C-3.20402344 2.58292969 -2.47054688 1.97835937 -1.71484375 1.35546875 C-1.14894531 0.90816406 -0.58304687 0.46085938 0 0 Z " fill="#111111" transform="translate(324,151)"/>
<path d="M0 0 C4.06623972 1.35541324 5.53046818 3.57009469 8 7 C7.67 7.99 7.34 8.98 7 10 C5.82438854 8.90536178 4.6597511 7.79892814 3.5 6.6875 C2.52546875 5.76517578 2.52546875 5.76517578 1.53125 4.82421875 C0 3 0 3 0 0 Z " fill="#262626" transform="translate(287,368)"/>
<path d="M0 0 C3.26008643 3.16952847 6.22237877 6.39937989 9 10 C5.54537888 9.74410214 4.72618453 8.71373837 2.25 6.125 C0 3 0 3 0 0 Z " fill="#2F2F2F" transform="translate(161,337)"/>
<path d="M0 0 C2.99220268 1.36370299 5.29026529 2.94908083 7.75 5.125 C8.67039062 5.93324219 8.67039062 5.93324219 9.609375 6.7578125 C10.06828125 7.16773438 10.5271875 7.57765625 11 8 C10.01 8.33 9.02 8.66 8 9 C5.95703125 7.63671875 5.95703125 7.63671875 3.8125 5.6875 C2.73935547 4.73423828 2.73935547 4.73423828 1.64453125 3.76171875 C0 2 0 2 0 0 Z " fill="#111111" transform="translate(393,396)"/>
<path d="M0 0 C7.48291572 6.15034169 7.48291572 6.15034169 10 10 C7.05043472 8.63055898 4.47531189 7.12169591 2 5 C2 4.34 2 3.68 2 3 C1.34 3 0.68 3 0 3 C0 2.01 0 1.02 0 0 Z " fill="#2E2E2E" transform="translate(361,364)"/>
<path d="M0 0 C2.33333333 2.33333333 4.66666667 4.66666667 7 7 C6.67 7.99 6.34 8.98 6 10 C4.99106869 8.90398831 3.99311775 7.79786082 3 6.6875 C2.1646875 5.76517578 2.1646875 5.76517578 1.3125 4.82421875 C0 3 0 3 0 0 Z " fill="#1E1E1E" transform="translate(154,329)"/>
<path d="M0 0 C3.37503669 1.1858237 5.64722731 2.27573689 8 5 C7.67 5.99 7.34 6.98 7 8 C5.8274869 7.04882866 4.66212985 6.08882991 3.5 5.125 C2.8503125 4.59132813 2.200625 4.05765625 1.53125 3.5078125 C1.0259375 3.01023437 0.520625 2.51265625 0 2 C0 1.34 0 0.68 0 0 Z " fill="#202020" transform="translate(192,330)"/>
<path d="M0 0 C2 0 2 0 4.5625 2.25 C6.88349075 4.86855367 7.38350444 5.7582031 8 9 C6.84775972 8.07038578 5.70340824 7.1309875 4.5625 6.1875 C3.60537109 5.40439453 3.60537109 5.40439453 2.62890625 4.60546875 C1 3 1 3 0 0 Z " fill="#292929" transform="translate(397,348)"/>
<path d="M0 0 C2.88437779 1.29299694 4.87219421 2.65941363 7 5 C6.67 5.99 6.34 6.98 6 8 C4.99403703 7.0479279 3.99538437 6.08812654 3 5.125 C2.443125 4.59132812 1.88625 4.05765625 1.3125 3.5078125 C0 2 0 2 0 0 Z " fill="#232323" transform="translate(212,226)"/>
<path d="M0 0 C3.16115776 1.36983503 3.9927092 1.9890638 6 5 C5.67 5.99 5.34 6.98 5 8 C2.5 5.6875 2.5 5.6875 0 3 C0 2.01 0 1.02 0 0 Z " fill="#2D2D2D" transform="translate(286,166)"/>
<path d="M0 0 C3.79588866 0.54226981 5.47211993 2.20127563 8 5 C7.67 5.99 7.34 6.98 7 8 C5.83035398 6.8572081 4.66435444 5.71068285 3.5 4.5625 C2.8503125 3.92441406 2.200625 3.28632813 1.53125 2.62890625 C0 1 0 1 0 0 Z " fill="#303030" transform="translate(343,297)"/>
<path d="M0 0 C3.40424844 1.13474948 4.21653709 1.96811304 6 5 C5.67 5.99 5.34 6.98 5 8 C2.5 5.6875 2.5 5.6875 0 3 C0 2.01 0 1.02 0 0 Z " fill="#2D2D2D" transform="translate(208,292)"/>
<path d="M0 0 C1.12894876 0.93274109 2.25300876 1.87140122 3.375 2.8125 C4.00148438 3.33457031 4.62796875 3.85664063 5.2734375 4.39453125 C7 6 7 6 9 9 C5.55862568 7.4705003 2.7777867 5.54630448 0 3 C0 2.01 0 1.02 0 0 Z " fill="#222222" transform="translate(71,141)"/>
<path d="M0 0 C3.24271506 0.5590888 4.93057424 1.4132178 7 4 C7 4.66 7 5.32 7 6 C4.50638429 4.79618552 2.31856917 3.54571278 0 2 C0 1.34 0 0.68 0 0 Z " fill="#1B1B1B" transform="translate(315,163)"/>
<path d="M0 0 C0.99 0.33 1.98 0.66 3 1 C-0.96 4.465 -0.96 4.465 -5 8 C-5 5 -5 5 -2.5 2.3125 C-1.675 1.549375 -0.85 0.78625 0 0 Z " fill="#0B0B0B" transform="translate(375,153)"/>
<path d="M0 0 C1.485 0.99 1.485 0.99 3 2 C4.32 2 5.64 2 7 2 C6.67 2.99 6.34 3.98 6 5 C4.35 4.67 2.7 4.34 1 4 C0.67 2.68 0.34 1.36 0 0 Z " fill="#323232" transform="translate(387,315)"/>
</svg>
